<svg width="106" height="106" viewBox="0 0 106 106" fill="none" xmlns="http://www.w3.org/2000/svg">
<g id="Public talk-amico 1">
<g id="freepik--Floor--inject-4">
<g id="freepik--floor--inject-4">
<path id="freepik--floor--inject-4_2" d="M16.4639 51.516C-3.71428 63.1654 -3.71216 82.0546 16.4639 93.704C36.6399 105.353 69.3558 105.353 89.5339 93.704C109.712 82.0546 109.71 63.176 89.5339 51.516C69.3579 39.856 36.642 39.856 16.4639 51.516Z" fill="#F5F5F5"/>
</g>
</g>
<g id="freepik--characters-2--inject-4">
<path id="freepik--Background--inject-4" d="M79.7586 11.5752C68.5989 5.17492 45.58 2.08184 23.2563 18.8934C9.29191 29.4065 5.69003 48.7346 12.4083 61.904C17.6405 72.1478 30.2333 80.1869 47.8123 81.3698C55.8217 81.9104 78.5311 80.6278 90.543 64.677C100.969 50.81 99.1333 22.684 79.7586 11.5752Z" fill="#37474F"/>
<path id="freepik--Character--inject-4" d="M75.7624 72.1415C75.7273 70.0228 75.5716 67.9079 75.296 65.8069C75.296 65.8069 75.2642 57.0492 74.7215 48.5671C74.7935 48.5289 74.8296 48.5056 74.8296 48.5056C74.8296 48.5056 74.7681 45.845 74.7533 43.3879C74.7533 43.0636 74.7533 42.701 74.7787 42.3279C75.2154 42.7116 75.5864 43.0487 75.7836 43.2544C76.3207 43.8082 76.9831 44.2248 77.7149 44.4691C79.2159 45.6796 80.7783 45.1157 81.3041 44.5963C81.8298 44.0769 81.762 43.1123 81.5987 42.6014C81.4355 42.0905 81.709 41.3994 81.162 40.5789C81.0004 40.3648 80.8041 40.1792 80.5812 40.0298C80.4624 39.7309 80.3331 39.4172 80.1847 39.0864C79.7607 38.1261 78.2767 35.2704 77.7001 34.0536C76.5574 31.6792 76.18 30.9796 73.4155 30.2588C73.1505 30.1888 72.8855 30.0468 72.629 29.9598C72.3462 29.8602 72.0747 29.7309 71.8192 29.574C71.7502 29.5326 71.6862 29.4836 71.6284 29.4277L71.2871 29.1055C71.0298 28.8598 70.7587 28.6291 70.4751 28.4144C70.3755 28.3402 70.1974 28.2766 70.1232 28.179C69.9875 28.0052 70.0681 27.6999 70.0702 27.5006C70.0702 27.3756 70.0702 27.2526 70.0702 27.1275C70.2361 27.0246 70.3703 26.8779 70.4582 26.7035C70.5578 26.4915 70.6892 26.2604 70.8376 25.9022C71.0603 25.9043 71.2796 25.8481 71.4736 25.7389C71.6769 25.6361 71.8577 25.4938 72.0054 25.3203C72.153 25.1468 72.2647 24.9457 72.3338 24.7286C72.4028 24.5115 72.428 24.2828 72.4077 24.0559C72.3874 23.8289 72.3221 23.6083 72.2156 23.4069C72.1076 23.1707 71.9146 22.9838 71.675 22.8833C71.9485 21.4162 71.8722 20.7633 71.675 20.4029C71.4795 19.9915 71.1345 19.6701 70.7104 19.504C70.4815 18.3677 68.9911 17.5642 68.0689 17.2695C66.8139 16.8667 65.5249 17.1593 64.3483 17.6448C63.938 17.8429 63.4848 17.9354 63.0297 17.914C62.8325 17.8907 62.6057 17.7932 62.5739 17.5981C62.5013 17.6465 62.4391 17.709 62.391 17.7818C62.343 17.8546 62.31 17.9363 62.294 18.0221C62.1905 18.4211 62.2342 18.8441 62.417 19.2136C62.3303 19.2349 62.249 19.2742 62.1785 19.329C62.1081 19.3838 62.0499 19.4528 62.0078 19.5316C61.863 19.7677 61.7782 20.0356 61.7608 20.3121C61.7434 20.5885 61.794 20.865 61.9082 21.1173C62.0483 21.4361 62.2848 21.703 62.5845 21.8805C62.4212 23.4854 62.4488 25.3213 62.7095 26.3834C62.983 27.5028 63.6996 28.0646 64.5391 28.1727C64.8108 28.2123 65.085 28.2322 65.3595 28.232C65.3816 28.3523 65.378 28.4758 65.3489 28.5946C65.3002 28.6921 65.1666 28.7154 65.0818 28.7748C64.9252 28.8854 64.7828 29.015 64.6578 29.1606L61.9866 30.0362C60.3627 30.4029 59.5253 30.7909 58.6667 31.9993C57.9947 32.9448 55.6372 36.7884 54.6196 38.6624C54.6196 38.6412 54.6196 38.6264 54.6196 38.6264L54.7574 38.3593C54.7319 38.3489 54.7057 38.3404 54.679 38.3338C54.6159 38.3159 54.5491 38.3159 54.4861 38.3338C54.3235 38.4109 54.1951 38.5453 54.1257 38.7112C54.0652 38.8556 54.0245 39.0075 54.0048 39.1628C53.985 39.3032 53.9502 39.4411 53.9009 39.574C53.8691 39.6482 53.8161 39.7182 53.778 39.786C53.6667 39.9993 53.6045 40.2347 53.5957 40.475C53.5814 40.6182 53.598 40.7628 53.6444 40.899C53.6948 41.0173 53.7667 41.1251 53.8564 41.217C53.95 41.3163 54.0521 41.4071 54.1617 41.4884C54.3991 41.9993 54.8592 42.6268 55.6457 43.5533C56.8435 44.9758 58.1409 46.6951 58.5649 47.2018C58.7621 47.4414 58.5649 47.929 58.4589 48.2194C58.4227 48.3269 58.4014 48.4389 58.3954 48.5522C58.3873 48.5625 58.378 48.5717 58.3678 48.5798C58.3278 48.5101 58.2663 48.4553 58.1926 48.4236C58.1188 48.3919 58.0367 48.3849 57.9586 48.4038C57.8769 48.4343 57.8041 48.4845 57.7466 48.5501C57.7237 48.5215 57.6906 48.5029 57.6542 48.4982C57.6179 48.4934 57.5811 48.5029 57.5516 48.5247C57.3968 48.6455 57.1573 48.9169 56.8732 49.1925C56.375 49.6758 56.5086 49.7776 56.746 50.6002C56.8414 50.9288 57.0979 51.0242 58.0901 51.215C58.9847 51.3909 59.3175 51.2976 60.2652 50.5217C60.2249 55.6479 60.3012 61.6136 60.5154 65.279C60.6468 67.5284 61.2891 79.6166 61.2891 79.6166C61.3876 79.7143 61.4909 79.807 61.5987 79.8943C61.4651 80.119 61.3231 80.348 61.1747 80.5812C61.1301 80.5812 61.0856 80.5812 61.039 80.5812C61.0307 80.5825 61.0227 80.5857 61.0158 80.5905C61.0088 80.5952 61.003 80.6015 60.9987 80.6088C62.7732 80.3268 64.6239 79.9558 66.5107 79.4788C66.7227 77.6238 67.3163 72.0885 67.4202 70.5388C67.5006 68.8759 67.4225 67.2091 67.187 65.561L67.6725 61.6093C67.6725 61.6093 68.3085 65.4889 68.8872 69.2074C69.2837 71.7387 69.9472 75.4635 70.4603 78.3234C72.2423 77.7358 73.9904 77.0499 75.6967 76.2691C75.7348 74.7682 75.773 73.2418 75.7624 72.1415ZM60.2609 44.4331C59.7394 43.46 59.1055 42.2346 58.7473 41.5372C58.8041 41.4984 58.8436 41.4391 58.8575 41.3718C58.8681 41.2806 58.8024 41.1958 58.8066 41.1047C58.8188 41.0421 58.8395 40.9815 58.8681 40.9245C58.879 40.8393 58.8579 40.7532 58.8087 40.6828L60.3436 38.5628C60.3118 40.2016 60.2821 42.4848 60.2609 44.4331Z" fill="#263238"/>
<path id="freepik--character--inject-4" d="M91.2977 63.5873C91.2723 62.1605 91.2045 59.8285 90.9861 56.1037C90.9458 55.3914 90.9034 54.7469 90.8589 54.1575C91.2341 53.9752 91.5479 53.7081 91.5691 53.2608C91.5967 52.593 91.4101 51.798 91.3168 51.128C91.2235 50.4581 91.0561 49.7437 90.9119 49.0483L91.0221 49.0844C92.3132 49.4893 93.1909 49.2476 93.5661 48.9423C93.9414 48.637 94.1046 47.9396 94.0219 46.445C93.9393 44.9504 93.2969 40.933 92.9238 39.2094C92.5507 37.4858 92.4998 37.0512 91.8638 36.0421C91.2278 35.033 90.3692 34.927 89.7777 34.8337C89.4215 34.7786 89.1714 34.7468 89.0272 34.7277L86.3221 34.344V34.3991L86.3857 32.6416C86.7376 32.4042 87.1743 32.3236 87.5814 32.1922C87.9884 32.0608 88.4569 31.7979 88.5884 31.3654C88.6148 31.4926 88.6106 31.6242 88.5764 31.7495C88.5421 31.8748 88.4787 31.9902 88.3912 32.0862C88.7012 31.9948 88.9855 31.8321 89.2214 31.6113C89.4574 31.3904 89.6384 31.1175 89.7501 30.8142C89.97 30.2048 89.9864 29.5405 89.7968 28.921C89.7035 28.5861 89.5636 28.2638 89.4703 27.9268C89.3283 27.418 89.4343 26.9007 89.5106 26.3919C89.5791 25.985 89.5113 25.5669 89.3177 25.2026C89.1464 24.8286 88.8769 24.5081 88.5379 24.2752C88.199 24.0422 87.8032 23.9056 87.3927 23.8797C87.3673 23.8797 87.1362 23.3772 87.1001 23.3221C86.6674 22.5833 85.9666 22.0397 85.1434 21.8042C84.4299 21.6175 83.6793 21.6263 82.9704 21.8296C82.6503 21.9166 82.3344 22.0247 82.0143 22.1413C81.694 22.2342 81.362 22.2806 81.0285 22.2791C79.9261 22.3575 78.8131 22.896 78.2619 23.8542C77.9665 24.4173 77.8122 25.0437 77.8124 25.6796C77.8068 26.2681 77.9615 26.847 78.2597 27.3544C78.3094 26.9888 78.4768 26.6494 78.7367 26.3876C78.6741 26.7097 78.6806 27.0414 78.7558 27.3607C78.8132 27.5619 78.9221 27.7445 79.0717 27.8907C79.0793 28.1631 79.1163 28.4339 79.1819 28.6984C79.2266 28.8417 79.2986 28.9749 79.3939 29.0906C79.1968 30.7252 79.7671 32.1519 80.2101 32.5823C80.5811 32.9469 81.2871 33.2056 82.1372 33.1822L82.1054 34.0917L80.1147 34.4436C78.5311 35.6923 76.6655 37.9268 76.5934 39.6164C76.5388 40.5688 76.6383 41.5238 76.8881 42.4445C76.8881 42.4445 77.0683 45.9425 76.7143 47.7636C76.45 49.1331 76.1885 50.5026 75.9299 51.8722C75.8217 52.4424 75.985 52.7689 76.445 53.1442C76.5175 53.2028 76.5932 53.2573 76.6719 53.3074C76.127 57.8569 75.8345 62.6778 75.8535 65.1052C75.8705 67.098 76.2224 71.9146 76.5404 75.8748C78.6452 74.8628 80.6619 73.6772 82.5697 72.3302C82.5867 72.1818 82.6057 72.0355 82.6227 71.9062C83.017 68.6838 82.5803 66.6592 82.5803 66.6592L83.4283 60.7571C83.4283 60.7571 84.5646 67.0238 85.1603 70.3225C87.1566 68.6406 88.9591 66.7414 90.5345 64.66C90.7974 64.3151 91.0518 63.9576 91.2977 63.5873Z" fill="#263238"/>
<g id="freepik--character--inject-4_2">
<path id="Vector" d="M65.1347 79.4724C65.1093 78.6605 65.1347 76.7779 65.0033 70.0575C64.9482 67.1128 64.7637 65.1815 64.5242 63.6975C64.5581 63.6784 64.592 63.6636 64.6238 63.6445C64.4952 62.9873 64.3666 62.3315 64.238 61.6772C64.1744 61.3549 64.0832 61.0242 64.0514 60.6977C64.0314 60.5725 64.0448 60.4443 64.0902 60.3259C64.1356 60.2075 64.2115 60.1033 64.3101 60.0236C64.4968 59.9017 64.7111 59.8288 64.9333 59.8116C65.5121 59.7352 66.0993 59.7564 66.6823 59.7119C66.9746 59.6941 67.2643 59.6472 67.5473 59.572C67.7932 59.5042 67.9713 59.466 68.1303 59.237C68.2664 58.9989 68.3529 58.7357 68.3847 58.4632C68.3847 58.442 68.3847 58.4208 68.3847 58.4018C68.3847 58.3424 68.3995 58.2852 68.4059 58.2237C68.7345 55.6097 67.2781 51.887 66.6357 50.2037C66.0781 48.7388 65.6033 48.1282 64.5454 47.8039V39.4596C64.5455 38.6723 64.2554 37.9127 63.7305 37.3259C63.2056 36.7392 62.4827 36.3667 61.7003 36.2796C61.4855 36.1666 61.248 36.1034 61.0055 36.0946C60.7629 36.0858 60.5215 36.1316 60.299 36.2287C59.6143 35.6563 58.444 35.3955 56.695 35.493C55.2683 35.5694 52.9596 36.3686 52.1964 38.5056C51.8614 39.4447 51.7893 41.2276 53.1186 42.0078C53.0741 44.0345 53.6019 44.8804 54.1977 45.3998C54.5899 45.7348 55.1686 45.951 56.0675 45.9552L56.0399 46.835C55.7855 46.8859 55.4993 46.941 55.1919 46.9856C54.6375 47.1037 54.1148 47.3394 53.6592 47.6767C53.2156 48.0156 52.8365 48.4313 52.5398 48.9042C52.3383 49.2109 52.1529 49.5279 51.9844 49.8539C51.6283 50.5338 51.3998 51.2732 51.3102 52.0354C51.2593 52.381 51.2191 52.7286 51.183 53.0763C50.8141 56.7142 50.8247 61.5394 50.6869 63.477L50.7548 63.5152C50.3668 69.182 50.1188 75.9257 50.1188 79.0421C50.1188 79.695 50.1463 80.5261 50.1951 81.4568C52.3409 81.4765 54.4864 81.386 56.6229 81.1854C56.589 80.9183 56.5615 80.7784 56.5615 80.7784L57.4837 74.3654C57.4837 74.3654 58.1748 77.8909 58.7938 80.9501C60.9312 80.6837 63.0539 80.3101 65.1538 79.8307C65.1496 79.6929 65.139 79.5763 65.1347 79.4724Z" fill="#263238"/>
<path id="Vector_2" d="M57.6109 74.3378L57.4837 73.6891L56.4703 80.755V80.7932C56.4703 80.7932 56.4979 80.9352 56.5297 81.1896L56.7523 81.1684C56.7269 80.9564 56.7035 80.8165 56.6951 80.7699L57.5197 75.0268C57.7466 76.1822 58.2448 78.6965 58.7006 80.9628L58.9253 80.9352C58.3105 77.893 57.6215 74.3908 57.6109 74.3378Z" fill="#37474F"/>
<path id="Vector_3" d="M65.2281 78.0796C65.2175 76.8076 65.1984 74.4417 65.1157 70.0554C65.1041 67.9491 64.9482 65.8461 64.6493 63.7611L64.6811 63.742L64.7511 63.7039L64.6217 63.0552C64.5157 62.523 64.4097 61.9952 64.308 61.4567C64.2571 61.1959 64.2041 60.9373 64.1596 60.6765C64.1376 60.5884 64.1377 60.4963 64.1599 60.4083C64.1821 60.3203 64.2257 60.2391 64.2868 60.172C64.4008 60.0875 64.5356 60.0355 64.6769 60.0214C65.084 59.9557 65.4945 59.9132 65.9065 59.8942L66.6485 59.8455C66.8842 59.8456 67.1196 59.8265 67.3523 59.7882C67.6936 59.7077 68.0201 59.6165 68.2236 59.3049C68.3687 59.0534 68.4611 58.7749 68.495 58.4866C68.4961 58.4746 68.4961 58.4625 68.495 58.4505V58.423C68.495 58.3636 68.5119 58.3021 68.5162 58.2428C68.8405 55.6691 67.4562 52.046 66.7905 50.3034L66.7417 50.1719C66.1587 48.6455 65.6627 48.0519 64.6557 47.7276V39.4596C64.6573 38.6485 64.36 37.8653 63.8208 37.2596C63.2815 36.6538 62.5379 36.2679 61.7322 36.1757C61.5147 36.0642 61.2759 36.0001 61.0318 35.9877C60.7877 35.9752 60.5437 36.0148 60.316 36.1036C59.5825 35.527 58.3953 35.2916 56.6887 35.3849C55.3658 35.457 52.9066 36.1884 52.0904 38.4716C51.7321 39.4765 51.6855 41.2488 53.0041 42.0756C52.9702 44.2168 53.585 45.0203 54.1256 45.4804C54.5496 45.8492 55.1559 46.04 55.9509 46.0612L55.9319 46.7375C55.7347 46.7778 55.4676 46.8287 55.1814 46.8711C54.611 46.9915 54.0731 47.233 53.6041 47.5792C53.1479 47.925 52.7586 48.351 52.4551 48.8363C52.2888 49.08 52.1373 49.3335 52.0014 49.5953L51.8933 49.7946C51.5284 50.4853 51.2954 51.2381 51.2064 52.0142C51.1597 52.3237 51.1195 52.6502 51.0771 53.0615C50.8417 55.3935 50.7612 58.2004 50.6976 60.4539C50.6615 61.6962 50.6297 62.7711 50.581 63.4643V63.5322L50.6382 63.5682H50.6488C50.2609 69.2519 50.0128 76.0105 50.0128 79.0315C50.0128 79.6823 50.0404 80.5155 50.0891 81.444H50.3139C50.2651 80.5134 50.2354 79.6823 50.2354 79.0294C50.2354 75.9978 50.4771 69.2032 50.8714 63.511V63.441L50.8036 63.4007C50.8502 62.7011 50.8799 61.656 50.9138 60.4518C50.9774 58.2025 51.058 55.4041 51.2933 53.0742C51.3357 52.6735 51.376 52.3449 51.4205 52.0396C51.5074 51.29 51.7316 50.5627 52.0819 49.8942L52.1922 49.6949C52.3246 49.441 52.4711 49.1947 52.631 48.9572C52.9172 48.5544 53.267 48.054 53.7207 47.7572C54.1621 47.43 54.6679 47.2002 55.2047 47.0831C55.5397 47.0343 55.8407 46.9728 56.0527 46.9304L56.1396 46.9135L56.1714 45.8323H56.0569C55.2598 45.8323 54.6705 45.6542 54.2592 45.3044C53.7504 44.8698 53.1737 44.1045 53.2183 42.0099V41.9442L53.161 41.9103C51.9123 41.1768 51.9632 39.4553 52.2897 38.5416C53.0656 36.3707 55.4209 35.6732 56.6887 35.6033C58.355 35.5142 59.5401 35.7517 60.2143 36.3156L60.2694 36.3601L60.333 36.3304C60.54 36.2399 60.7647 36.1973 60.9904 36.2057C61.2162 36.2142 61.4371 36.2735 61.6368 36.3792L61.6749 36.3919C62.4317 36.4716 63.1322 36.8287 63.6411 37.3944C64.1501 37.9602 64.4315 38.6944 64.4309 39.4553V47.8887L64.5094 47.912C65.4909 48.213 65.9616 48.76 66.5297 50.244L66.5806 50.3776C67.2378 52.1011 68.6095 55.6903 68.2915 58.2216C68.2915 58.2809 68.2787 58.3382 68.2703 58.3912C68.2713 58.4039 68.2713 58.4166 68.2703 58.4293V58.4526C68.2414 58.7103 68.1598 58.9592 68.0307 59.184C67.7021 59.6928 66.8414 59.608 66.3241 59.6292C65.9595 59.6441 65.5969 59.6462 65.2323 59.6738C64.8773 59.6686 64.5269 59.7548 64.2147 59.9239C64.1524 59.9598 64.0988 60.009 64.0578 60.0681C64.0371 60.1024 64.0214 60.1395 64.0112 60.1783C63.9267 60.5423 63.9369 60.9218 64.0409 61.2807C64.1575 61.887 64.2783 62.4955 64.3991 63.1018L64.4945 63.5894L64.397 63.6424L64.4097 63.7208C64.7179 65.8206 64.8773 67.9395 64.8867 70.0618C64.9694 74.448 64.9885 76.814 64.9991 78.0838C64.9991 78.7771 65.0097 79.1947 65.0182 79.4767C65.0182 79.589 65.0351 79.712 65.0521 79.8519L65.2641 79.801C65.248 79.6915 65.238 79.581 65.2344 79.4703C65.2387 79.1884 65.2344 78.7707 65.2281 78.0796Z" fill="#37474F"/>
</g>
<g id="freepik--character--inject-4_3">
<path id="Vector_4" d="M91.7174 58.6307C91.4757 58.0138 91.2022 57.3439 90.9118 56.6549C90.9415 56.6104 90.9563 56.5828 90.9563 56.5828C90.9563 56.5828 89.6843 53.6254 88.955 51.9188C87.8632 49.3854 86.9686 48.7388 84.4903 48.1176C83.7653 47.9565 82.7625 47.7297 81.3676 47.4816L81.3824 45.3892C81.6195 45.0757 81.8403 44.7502 82.0438 44.414C82.3018 44.3955 82.545 44.2866 82.7307 44.1066C83.4388 43.4367 83.4367 42.489 83.0487 41.9569C83.1895 41.6905 83.2903 41.4048 83.3476 41.1089C83.6678 39.7394 83.761 36.8901 80.5259 35.7368C77.948 34.8189 76.0061 35.0309 75.0924 36.1396C74.9524 36.1163 74.8252 36.0951 74.715 36.0803C73.125 35.8407 72.6925 36.1269 72.6353 36.3644C72.6204 36.4195 72.559 36.676 72.542 36.7396C72.5379 36.767 72.5379 36.7949 72.542 36.8223C72.5439 36.8457 72.5496 36.8686 72.559 36.8901C72.7392 37.3014 73.92 38.1621 73.92 38.1621C73.5956 39.0313 73.6804 39.6292 73.9497 39.998C73.7875 40.7969 73.6861 41.607 73.6465 42.4212C73.5172 44.5603 74.0324 45.5185 74.8062 45.9107C75.4569 46.2315 76.1731 46.397 76.8986 46.3941L76.8816 47.1403C76.1269 47.1403 75.3764 47.0513 74.6874 47.3799C72.0883 48.6116 71.7194 51.5987 71.552 54.1639C71.34 57.5834 71.429 64.8678 71.429 64.8678C71.4453 64.9043 71.4651 64.9391 71.4884 64.9716C71.2403 68.9551 71.2106 74.0537 71.2615 78.0669C77.2866 75.966 83.3286 72.646 88.1622 67.4796C89.4914 65.6585 91.2892 62.9534 91.7386 61.9782C92.3555 60.6447 92.3152 60.1571 91.7174 58.6307ZM85.6966 64.448C85.6839 63.4198 85.6966 62.1414 85.6966 61.1154C85.686 60.0554 85.7348 58.8809 85.7941 57.8781C85.9913 58.3021 86.1121 58.5692 86.1121 58.5692C86.1851 58.6002 86.2623 58.6202 86.3411 58.6286L87.17 60.3967L87.3523 60.7677C87.3523 60.7677 86.7502 62.116 85.6966 64.448Z" fill="#263238"/>
<path id="Vector_5" d="M86.409 58.529H86.3497C86.2944 58.521 86.2399 58.509 86.1864 58.4929L85.7009 57.4329L85.6755 57.8781C85.6013 59.1077 85.5674 60.2101 85.5759 61.1238C85.5759 61.5966 85.5759 62.1202 85.5759 62.6502C85.5759 63.2735 85.5759 63.901 85.5759 64.4586V64.9653L85.7879 64.5031C86.8479 62.1605 87.4287 60.8249 87.4287 60.8249L87.4499 60.7783L87.2867 60.4412L86.409 58.529ZM85.8048 63.9392C85.8048 63.5152 85.8048 63.0806 85.8048 62.6439C85.8048 62.1139 85.8048 61.5839 85.8048 61.1154C85.8048 60.3119 85.8218 59.3791 85.8769 58.336L86.0232 58.654L86.0592 58.6731C86.1234 58.7018 86.1911 58.7218 86.2606 58.7325L87.0281 60.3691L87.2252 60.7698C87.1107 61.0136 86.6168 62.1266 85.8048 63.9392Z" fill="#37474F"/>
<path id="Vector_6" d="M91.8213 58.5904C91.5966 58.0117 91.3316 57.3651 91.0369 56.6655L91.0539 56.6379L91.0815 56.5892L91.0603 56.5383C91.0603 56.5383 89.7883 53.5809 89.0569 51.8743C87.9227 49.2391 86.975 48.6264 84.5137 48.0095L84.4098 47.9862C83.7123 47.8293 82.7626 47.6173 81.48 47.3968L81.4927 45.4337L81.5966 45.2917C81.7386 45.0945 81.9146 44.8507 82.1117 44.5158C82.3737 44.4852 82.6181 44.3689 82.8071 44.185C83.1159 43.9117 83.3215 43.5408 83.3898 43.1341C83.4581 42.7275 83.3849 42.3097 83.1823 41.9506L83.1951 41.9272C83.3186 41.6781 83.4084 41.4136 83.4622 41.1407C83.689 40.1719 84.1512 36.9134 80.5705 35.6287C78.0541 34.732 76.0485 34.874 75.0585 36.0146L74.7426 35.9637C72.9639 35.6987 72.5972 36.0824 72.5336 36.3474C72.5145 36.4195 72.4594 36.6463 72.4445 36.7036C72.433 36.7485 72.4294 36.7952 72.4339 36.8414C72.4359 36.8763 72.4438 36.9107 72.4573 36.9431C72.6247 37.3247 73.5173 38.0031 73.7865 38.2151C73.46 39.1522 73.6211 39.7161 73.8331 40.0341C73.6757 40.8228 73.5765 41.6221 73.5363 42.4254C73.4197 44.3695 73.8183 45.5461 74.7596 46.0294C75.3901 46.3423 76.0825 46.5104 76.7863 46.5213L76.7736 47.047H76.498C75.8789 47.0343 75.2366 47.0216 74.6409 47.3036C72.0015 48.548 71.6029 51.499 71.4439 54.1681C71.2319 57.5601 71.3188 64.8084 71.3209 64.8805V64.9229C71.3344 64.9547 71.3507 64.9852 71.3697 65.014C71.1259 68.9827 71.0962 74.1131 71.1471 78.1178L71.3697 78.0393C71.3209 74.0389 71.3506 68.936 71.5944 64.9928V64.9547L71.5753 64.925C71.5597 64.9019 71.5455 64.8778 71.5329 64.8529C71.5329 64.3823 71.4524 57.4605 71.6559 54.183C71.8191 51.5775 72.2029 48.6964 74.7278 47.5007C75.2769 47.24 75.8641 47.2527 76.4853 47.2654C76.6146 47.2654 76.7439 47.2654 76.8753 47.2654H76.9835L77.0068 46.2966H76.8944C76.186 46.2991 75.4866 46.1381 74.8507 45.8259C74.0027 45.4019 73.6402 44.2868 73.7526 42.4339C73.7919 41.6254 73.8925 40.821 74.0536 40.0277L74.0642 39.979L74.0345 39.9387C73.7483 39.5465 73.7441 38.9486 74.0176 38.2066L74.0473 38.1261L73.9794 38.0773C73.6572 37.8441 72.7922 37.17 72.6544 36.8562C72.6535 36.8421 72.6535 36.8279 72.6544 36.8138C72.6522 36.7983 72.6522 36.7826 72.6544 36.7672C72.6693 36.7078 72.7265 36.4767 72.7477 36.3877C72.7604 36.3389 72.9152 35.9192 74.7023 36.1884L75.0776 36.2478L75.1412 36.2584L75.1836 36.2096C76.0973 35.0987 78.0329 34.9652 80.4942 35.8407C83.8989 37.0534 83.4622 40.1592 83.2502 41.0814C83.202 41.3372 83.1177 41.5848 83 41.817C82.9831 41.8552 82.9682 41.8848 82.9576 41.9124L83.0488 41.9442L82.9661 42.0099C83.3286 42.5081 83.3117 43.3943 82.6587 44.0133C82.4958 44.1822 82.2776 44.2868 82.0439 44.308H81.9824L81.9527 44.3589C81.7861 44.6345 81.6042 44.9007 81.4079 45.156L81.2828 45.332L81.2637 45.3595L81.2468 47.5813L81.3422 47.5982C82.6672 47.823 83.6424 48.0413 84.3547 48.2003L84.4565 48.2236C86.833 48.8194 87.7488 49.4108 88.8449 51.9591C89.5211 53.5279 90.6511 56.1609 90.8249 56.5658L90.8122 56.5849L90.7783 56.6358L90.8016 56.6888C91.1048 57.4096 91.3761 58.0732 91.6072 58.6625C92.2093 60.2038 92.2135 60.6638 91.6284 61.9358C91.1133 63.0509 88.8385 66.4238 87.522 68.141C87.9615 67.6958 88.3898 67.2365 88.8067 66.763C90.0405 65.0204 91.4397 62.8771 91.8319 62.0291C92.487 60.632 92.4086 60.0914 91.8213 58.5904Z" fill="#37474F"/>
</g>
</g>
<g id="freepik--Shadows--inject-4">
<path id="freepik--Shadow--inject-4" d="M84.0283 87.344C86.1016 88.5545 86.1016 90.524 84.0283 91.7303C81.9549 92.9366 78.5926 92.9408 76.5193 91.7303C74.4459 90.5198 74.4459 88.5503 76.5193 87.344C78.5926 86.1377 81.9549 86.142 84.0283 87.344Z" fill="#E0E0E0"/>
<path id="freepik--shadow--inject-4" d="M23.5384 97.1723C30.9556 97.1723 36.9686 93.7013 36.9686 89.4195C36.9686 85.1377 30.9556 81.6666 23.5384 81.6666C16.1211 81.6666 10.1082 85.1377 10.1082 89.4195C10.1082 93.7013 16.1211 97.1723 23.5384 97.1723Z" fill="#E0E0E0"/>
<path id="freepik--shadow--inject-4_2" d="M35.6182 103.509L23.443 96.4791L39.5211 87.2062L51.6835 94.2276L35.6182 103.509Z" fill="#E0E0E0"/>
<path id="freepik--shadow--inject-4_3" d="M52.3004 90.3523C54.5016 90.3523 56.286 89.3224 56.286 88.0521C56.286 86.7817 54.5016 85.7519 52.3004 85.7519C50.0992 85.7519 48.3148 86.7817 48.3148 88.0521C48.3148 89.3224 50.0992 90.3523 52.3004 90.3523Z" fill="#E0E0E0"/>
</g>
<g id="freepik--Plant--inject-4">
<g id="freepik--plant--inject-4">
<g id="freepik--Pot--inject-4">
<path id="Vector_7" d="M77.0874 90.2632C75.3914 88.5036 74.3823 84.0601 76.0444 82.6652H84.5032C86.1653 84.0601 85.1646 88.5015 83.4623 90.2611L83.4156 90.3099L83.3563 90.3671C83.3096 90.4138 83.2566 90.4604 83.2036 90.5049L83.1612 90.5388C83.1209 90.5706 83.0785 90.6046 83.034 90.6364C82.9662 90.6879 82.8954 90.7353 82.822 90.7784C81.4186 91.5967 79.1459 91.5967 77.7446 90.7784C77.6704 90.736 77.5962 90.6872 77.522 90.6364C77.4796 90.6067 77.4415 90.5749 77.4033 90.5431L77.3524 90.5049C77.2994 90.4604 77.2507 90.4159 77.204 90.3714L77.1362 90.3035L77.0874 90.2632Z" fill="#37474F"/>
<path id="Vector_8" d="M83.7696 82.1034C85.6988 83.2312 85.6988 85.0565 83.7696 86.1844C81.8404 87.3122 78.7092 87.3101 76.7736 86.1844C74.8381 85.0586 74.8444 83.2312 76.7736 82.1034C78.7028 80.9755 81.8319 80.984 83.7696 82.1034Z" fill="#455A64"/>
<path id="Vector_9" d="M82.8411 82.6461C84.2572 83.4729 84.2572 84.8148 82.8411 85.6416C81.4249 86.4684 79.1247 86.4684 77.7085 85.6416C76.2924 84.8148 76.2903 83.4729 77.7085 82.6461C79.1268 81.8193 81.4228 81.8172 82.8411 82.6461Z" fill="#263238"/>
<path id="Vector_10" d="M77.7086 84.0665C79.1248 83.2397 81.4228 83.2397 82.8411 84.0665C83.1852 84.2545 83.4767 84.5256 83.6891 84.8551C83.4766 85.184 83.185 85.4544 82.8411 85.6416C81.4228 86.4684 79.1248 86.4684 77.7086 85.6416C77.3653 85.4535 77.074 85.1833 76.8606 84.8551C77.0738 84.5263 77.3652 84.2553 77.7086 84.0665Z" fill="white"/>
</g>
<path id="Vector_11" d="M79.1163 75.9363C78.546 76.6571 76.8309 76.9751 75.9766 75.2091C75.1731 73.5513 74.3251 71.9867 74.0686 71.3762C74.0329 71.2965 74.0136 71.2104 74.012 71.1232C74.0103 71.0359 74.0263 70.9491 74.059 70.8682C74.0916 70.7872 74.1403 70.7137 74.202 70.652C74.2638 70.5903 74.3374 70.5417 74.4184 70.5091C74.4184 70.5091 74.3972 69.5678 76.0359 70.0851C77.6747 70.6024 78.8704 71.4779 79.6844 72.9874C80.4985 74.4968 80.1657 75.6458 79.1163 75.9363Z" fill="#17AE42"/>
<g id="Group" opacity="0.5">
<path id="Vector_12" d="M79.1163 75.9363C78.546 76.6571 76.8309 76.9751 75.9766 75.2091C75.1731 73.5513 74.3251 71.9867 74.0686 71.3762C74.0329 71.2965 74.0136 71.2104 74.012 71.1232C74.0103 71.0359 74.0263 70.9491 74.059 70.8682C74.0916 70.7872 74.1403 70.7137 74.202 70.652C74.2638 70.5903 74.3374 70.5417 74.4184 70.5091C74.4184 70.5091 74.3972 69.5678 76.0359 70.0851C77.6747 70.6024 78.8704 71.4779 79.6844 72.9874C80.4985 74.4968 80.1657 75.6458 79.1163 75.9363Z" fill="white"/>
</g>
<path id="Vector_13" d="M79.9897 78.2916C79.9369 77.9748 79.8661 77.6612 79.7777 77.3524C79.2332 75.4846 78.2884 73.7577 77.0089 72.292C76.5337 71.7323 76.0063 71.219 75.4338 70.7592C75.4168 70.7444 75.4062 70.7826 75.4189 70.7932C77.3446 72.5173 78.7599 74.7371 79.5105 77.2104C79.6144 77.5496 79.7225 77.893 79.8073 78.2365C79.8921 78.5799 79.9621 78.9424 80.049 79.2965C80.049 79.3325 80.1147 79.3495 80.1126 79.2965C80.0977 78.9588 80.0566 78.6229 79.9897 78.2916Z" fill="#17AE42"/>
<path id="Vector_14" opacity="0.3" d="M79.9897 78.2916C79.9369 77.9748 79.8661 77.6612 79.7777 77.3524C79.2332 75.4846 78.2884 73.7577 77.0089 72.292C76.5337 71.7323 76.0063 71.219 75.4338 70.7592C75.4168 70.7444 75.4062 70.7826 75.4189 70.7932C77.3446 72.5173 78.7599 74.7371 79.5105 77.2104C79.6144 77.5496 79.7225 77.893 79.8073 78.2365C79.8921 78.5799 79.9621 78.9424 80.049 79.2965C80.049 79.3325 80.1147 79.3495 80.1126 79.2965C80.0977 78.9588 80.0566 78.6229 79.9897 78.2916Z" fill="black"/>
<path id="Vector_15" d="M80.9839 74.6706C79.4999 75.1307 78.389 73.9689 78.7706 72.1478C79.1522 70.3268 81.0687 68.3022 81.7916 68.8449C82.2432 68.3954 83.2375 68.5566 83.6996 70.0363C84.1618 71.5161 83.7399 75.3151 80.9839 74.6706Z" fill="#17AE42"/>
<g id="Group_2" opacity="0.3">
<path id="Vector_16" d="M80.9839 74.6706C79.4999 75.1307 78.389 73.9689 78.7706 72.1478C79.1522 70.3268 81.0687 68.3022 81.7916 68.8449C82.2432 68.3954 83.2375 68.5566 83.6996 70.0363C84.1618 71.5161 83.7399 75.3151 80.9839 74.6706Z" fill="white"/>
</g>
<path id="Vector_17" d="M81.8489 69.96C81.4268 71.0209 81.0963 72.116 80.861 73.2333C80.6071 74.3646 80.4153 75.509 80.2865 76.6613C80.0194 78.8873 79.9727 78.7644 79.9876 81.0031C79.9876 81.6242 80.0003 82.2433 80.013 82.8644C80.0257 83.4856 80.013 84.147 80.0681 84.7724C80.0893 85.0162 80.437 84.9526 80.4412 84.7279C80.4624 83.6128 80.401 82.4913 80.3904 81.3762C80.3798 80.2611 80.3904 81.5437 80.4116 80.4413C80.4488 78.193 80.65 75.9505 81.0137 73.7315C81.1197 73.1146 81.2362 72.4976 81.3804 71.8871C81.5246 71.2765 81.7175 70.6151 81.8871 69.9791C81.8934 69.96 81.8638 69.9197 81.8489 69.96Z" fill="#17AE42"/>
<path id="Vector_18" opacity="0.3" d="M81.8489 69.96C81.4268 71.0209 81.0963 72.116 80.861 73.2333C80.6071 74.3646 80.4153 75.509 80.2865 76.6613C80.0194 78.8873 79.9727 78.7644 79.9876 81.0031C79.9876 81.6242 80.0003 82.2433 80.013 82.8644C80.0257 83.4856 80.013 84.147 80.0681 84.7724C80.0893 85.0162 80.437 84.9526 80.4412 84.7279C80.4624 83.6128 80.401 82.4913 80.3904 81.3762C80.3798 80.2611 80.3904 81.5437 80.4116 80.4413C80.4488 78.193 80.65 75.9505 81.0137 73.7315C81.1197 73.1146 81.2362 72.4976 81.3804 71.8871C81.5246 71.2765 81.7175 70.6151 81.8871 69.9791C81.8934 69.96 81.8638 69.9197 81.8489 69.96Z" fill="black"/>
<path id="Vector_19" d="M77.5326 79.5954C77.3418 80.5579 76.021 81.2532 74.4968 80.6215C72.9725 79.9897 69.96 76.0274 71.3358 75.5907C71.2616 74.8699 75.4168 74.2784 77.4711 76.8118C78.9657 78.652 77.5326 79.5954 77.5326 79.5954Z" fill="#17AE42"/>
<g id="Group_3" opacity="0.7">
<path id="Vector_20" d="M77.5326 79.5954C77.3418 80.5579 76.021 81.2532 74.4968 80.6215C72.9725 79.9897 69.96 76.0274 71.3358 75.5907C71.2616 74.8699 75.4168 74.2784 77.4711 76.8118C78.9657 78.652 77.5326 79.5954 77.5326 79.5954Z" fill="white"/>
</g>
<path id="Vector_21" d="M79.712 81.0243C79.5203 80.7845 79.3135 80.5572 79.0929 80.3438C77.739 78.9999 76.1806 77.8794 74.4756 77.0238C73.848 76.6876 73.1994 76.3923 72.5336 76.1398C72.5146 76.1398 72.5209 76.1674 72.5336 76.1737C73.0891 76.4366 73.6445 76.691 74.1809 76.9899C74.7172 77.2888 75.2727 77.645 75.7963 78.0096C76.8015 78.7123 77.7506 79.492 78.635 80.3416C78.8873 80.5833 79.1247 80.8377 79.3791 81.0752C79.6335 81.3126 79.924 81.55 80.1762 81.8087C80.2123 81.8468 80.278 81.8299 80.2377 81.7748C80.0596 81.5225 79.8985 81.266 79.712 81.0243Z" fill="#17AE42"/>
<path id="Vector_22" opacity="0.3" d="M79.712 81.0243C79.5203 80.7845 79.3135 80.5572 79.0929 80.3438C77.739 78.9999 76.1806 77.8794 74.4756 77.0238C73.848 76.6876 73.1994 76.3923 72.5336 76.1398C72.5146 76.1398 72.5209 76.1674 72.5336 76.1737C73.0891 76.4366 73.6445 76.691 74.1809 76.9899C74.7172 77.2888 75.2727 77.645 75.7963 78.0096C76.8015 78.7123 77.7506 79.492 78.635 80.3416C78.8873 80.5833 79.1247 80.8377 79.3791 81.0752C79.6335 81.3126 79.924 81.55 80.1762 81.8087C80.2123 81.8468 80.278 81.8299 80.2377 81.7748C80.0596 81.5225 79.8985 81.266 79.712 81.0243Z" fill="black"/>
<path id="Vector_23" d="M85.9744 78.44C85.949 77.8973 83.2184 77.9248 81.9337 78.9552C80.649 79.9855 80.5006 80.9967 81.2977 81.3486C81.1578 82.4934 82.9661 83.2566 84.5858 81.815C86.2055 80.3734 86.5574 78.546 85.9744 78.44Z" fill="#17AE42"/>
<path id="Vector_24" opacity="0.3" d="M85.9744 78.44C85.949 77.8973 83.2184 77.9248 81.9337 78.9552C80.649 79.9855 80.5006 80.9967 81.2977 81.3486C81.1578 82.4934 82.9661 83.2566 84.5858 81.815C86.2055 80.3734 86.5574 78.546 85.9744 78.44Z" fill="white"/>
<path id="Vector_25" d="M83.2799 79.8668C82.026 80.4222 80.9725 81.3485 80.2611 82.521C80.2187 82.5867 80.3225 82.716 80.3671 82.644C81.0834 81.4882 82.0879 80.5384 83.2821 79.888C83.2821 79.888 83.2927 79.8625 83.2799 79.8668Z" fill="#17AE42"/>
<path id="Vector_26" opacity="0.3" d="M83.2799 79.8668C82.026 80.4222 80.9725 81.3485 80.2611 82.521C80.2187 82.5867 80.3225 82.716 80.3671 82.644C81.0834 81.4882 82.0879 80.5384 83.2821 79.888C83.2821 79.888 83.2927 79.8625 83.2799 79.8668Z" fill="black"/>
<path id="Vector_27" d="M81.461 83.104C80.5367 84.0135 81.5585 85.1392 83.0616 85.6968C84.3338 86.1251 85.7204 86.0608 86.9475 85.5166C87.6726 85.1562 87.821 84.9738 87.821 84.9738C87.6328 84.3354 87.3763 83.7191 87.0557 83.1358C86.6576 82.5129 86.0888 82.0177 85.4171 81.7091C84.7454 81.4005 83.9991 81.2915 83.2672 81.3953C81.3444 81.6412 81.196 82.4404 81.461 83.104Z" fill="#17AE42"/>
<g id="Group_4" opacity="0.5">
<path id="Vector_28" d="M81.461 83.104C80.5367 84.0135 81.5585 85.1392 83.0616 85.6968C84.3338 86.1251 85.7204 86.0608 86.9475 85.5166C87.6726 85.1562 87.821 84.9738 87.821 84.9738C87.6328 84.3354 87.3763 83.7191 87.0557 83.1358C86.6576 82.5129 86.0888 82.0177 85.4171 81.7091C84.7454 81.4005 83.9991 81.2915 83.2672 81.3953C81.3444 81.6412 81.196 82.4404 81.461 83.104Z" fill="white"/>
</g>
<path id="Vector_29" d="M85.347 83.7866C84.6035 83.3959 83.8125 83.103 82.9938 82.9153C82.1882 82.7606 81.1981 82.7542 80.5473 83.3266C80.2929 83.5492 79.9579 84.0304 80.1636 84.3718C80.1827 84.4057 80.2844 84.4693 80.3077 84.4014C80.3566 84.1828 80.4276 83.9697 80.5197 83.7654C80.6409 83.5649 80.8147 83.4014 81.0222 83.2927C81.5464 83.0305 82.1366 82.9295 82.7182 83.0022C83.634 83.0892 84.4969 83.458 85.3406 83.8036C85.3555 83.8121 85.3555 83.7909 85.347 83.7866Z" fill="#17AE42"/>
<path id="Vector_30" opacity="0.3" d="M85.347 83.7866C84.6035 83.3959 83.8125 83.103 82.9938 82.9153C82.1882 82.7606 81.1981 82.7542 80.5473 83.3266C80.2929 83.5492 79.9579 84.0304 80.1636 84.3718C80.1827 84.4057 80.2844 84.4693 80.3077 84.4014C80.3566 84.1828 80.4276 83.9697 80.5197 83.7654C80.6409 83.5649 80.8147 83.4014 81.0222 83.2927C81.5464 83.0305 82.1366 82.9295 82.7182 83.0022C83.634 83.0892 84.4969 83.458 85.3406 83.8036C85.3555 83.8121 85.3555 83.7909 85.347 83.7866Z" fill="black"/>
<path id="Vector_31" d="M81.7154 77.38C81.4843 78.192 82.5231 78.953 83.8142 78.5163C85.1053 78.0796 86.4472 77.6789 87.5475 77.6683C88.6478 77.6577 89.3474 76.9306 89.1206 76.443C88.8937 75.9554 88.6266 74.7936 85.8218 74.4629C83.0171 74.1322 81.7514 75.1222 81.1578 75.896C80.5642 76.6698 81.249 77.5093 81.7154 77.38Z" fill="#17AE42"/>
<g id="Group_5" opacity="0.7">
<path id="Vector_32" d="M81.7154 77.38C81.4843 78.192 82.5231 78.953 83.8142 78.5163C85.1053 78.0796 86.4472 77.6789 87.5475 77.6683C88.6478 77.6577 89.3474 76.9306 89.1206 76.443C88.8937 75.9554 88.6266 74.7936 85.8218 74.4629C83.0171 74.1322 81.7514 75.1222 81.1578 75.896C80.5642 76.6698 81.249 77.5093 81.7154 77.38Z" fill="white"/>
</g>
<path id="Vector_33" d="M86.9199 75.6628C86.6231 75.5961 86.3188 75.5683 86.0147 75.5801C85.7214 75.5809 85.4286 75.605 85.1391 75.6522C84.5705 75.7527 84.017 75.9251 83.4919 76.1652C82.5061 76.602 81.5267 77.1722 80.8864 78.0605C80.5409 78.5348 80.2633 79.055 80.0617 79.606C80.0236 79.712 80.2271 79.7714 80.2737 79.676C80.4788 79.2135 80.7132 78.7645 80.9755 78.3319C81.2603 77.8946 81.6249 77.5148 82.0503 77.2125C82.9432 76.5722 83.9508 76.1095 85.0183 75.8494C85.3307 75.778 85.6483 75.7319 85.9681 75.7116C86.2857 75.7049 86.6035 75.7162 86.9199 75.7455C86.9772 75.7476 86.9581 75.6713 86.9199 75.6628Z" fill="#17AE42"/>
<path id="Vector_34" opacity="0.3" d="M86.9199 75.6628C86.6231 75.5961 86.3188 75.5683 86.0147 75.5801C85.7214 75.5809 85.4286 75.605 85.1391 75.6522C84.5705 75.7527 84.017 75.9251 83.4919 76.1652C82.5061 76.602 81.5267 77.1722 80.8864 78.0605C80.5409 78.5348 80.2633 79.055 80.0617 79.606C80.0236 79.712 80.2271 79.7714 80.2737 79.676C80.4788 79.2135 80.7132 78.7645 80.9755 78.3319C81.2603 77.8946 81.6249 77.5148 82.0503 77.2125C82.9432 76.5722 83.9508 76.1095 85.0183 75.8494C85.3307 75.778 85.6483 75.7319 85.9681 75.7116C86.2857 75.7049 86.6035 75.7162 86.9199 75.7455C86.9772 75.7476 86.9581 75.6713 86.9199 75.6628Z" fill="black"/>
<path id="Vector_35" d="M79.4152 81.9592C79.2032 81.1112 78.1431 80.6533 76.7503 80.5494C76.0673 80.4874 75.3807 80.6207 74.7704 80.9337C74.1601 81.2467 73.6513 81.7266 73.3032 82.3175C72.5781 83.5577 72.2771 84.5456 72.7159 84.7067C73.1548 84.8678 75.0204 85.1307 76.2224 85.2325C77.4245 85.3342 78.9254 85.1244 79.907 84.2106C80.8886 83.2969 80.56 82.15 79.4152 81.9592Z" fill="#17AE42"/>
<path id="Vector_36" opacity="0.3" d="M79.4152 81.9592C79.2032 81.1112 78.1431 80.6533 76.7503 80.5494C76.0673 80.4874 75.3807 80.6207 74.7704 80.9337C74.1601 81.2467 73.6513 81.7266 73.3032 82.3175C72.5781 83.5577 72.2771 84.5456 72.7159 84.7067C73.1548 84.8678 75.0204 85.1307 76.2224 85.2325C77.4245 85.3342 78.9254 85.1244 79.907 84.2106C80.8886 83.2969 80.56 82.15 79.4152 81.9592Z" fill="white"/>
<path id="Vector_37" d="M79.4682 81.8468C78.9792 81.7216 78.4697 81.6985 77.9715 81.779C77.4896 81.8346 77.0154 81.9434 76.5574 82.1034C76.0741 82.276 75.6061 82.4887 75.1582 82.7394C74.9229 82.8687 74.6918 83.0044 74.4671 83.1485C74.2501 83.2747 74.0425 83.4164 73.8459 83.5725C73.8459 83.5725 73.8459 83.6086 73.8459 83.6022C74.0749 83.5004 74.2869 83.3563 74.5053 83.2333C74.7236 83.1104 74.9759 82.9726 75.2155 82.8496C75.6626 82.62 76.126 82.4237 76.6019 82.2624C77.0781 82.1022 77.571 81.9969 78.0711 81.9486C78.5391 81.9228 79.0084 81.9341 79.4746 81.9825C79.5806 81.9868 79.5254 81.8659 79.4682 81.8468Z" fill="#17AE42"/>
<path id="Vector_38" opacity="0.3" d="M79.4682 81.8468C78.9792 81.7216 78.4697 81.6985 77.9715 81.779C77.4896 81.8346 77.0154 81.9434 76.5574 82.1034C76.0741 82.276 75.6061 82.4887 75.1582 82.7394C74.9229 82.8687 74.6918 83.0044 74.4671 83.1485C74.2501 83.2747 74.0425 83.4164 73.8459 83.5725C73.8459 83.5725 73.8459 83.6086 73.8459 83.6022C74.0749 83.5004 74.2869 83.3563 74.5053 83.2333C74.7236 83.1104 74.9759 82.9726 75.2155 82.8496C75.6626 82.62 76.126 82.4237 76.6019 82.2624C77.0781 82.1022 77.571 81.9969 78.0711 81.9486C78.5391 81.9228 79.0084 81.9341 79.4746 81.9825C79.5806 81.9868 79.5254 81.8659 79.4682 81.8468Z" fill="black"/>
</g>
</g>
<g id="freepik--Spotlight--inject-4">
<path id="Vector_39" opacity="0.3" d="M95.5293 9.82409L94.0262 8.69837L91.6899 8.35281L87.6323 8.58813L23.2563 18.8935L33.0359 94.9039L95.7837 15.741L96.39 12.7497L95.5293 9.82409Z" fill="#17AE42"/>
<g id="freepik--Lamp--inject-4">
<path id="Vector_40" d="M94.6495 5.35937L95.47 4.88449V8.11113L94.6495 8.58601V5.35937Z" fill="#263238"/>
<path id="Vector_41" opacity="0.1" d="M94.6495 5.35937L95.47 4.88449V8.11113L94.6495 8.58601V5.35937Z" fill="black"/>
<path id="Vector_42" d="M91.1897 9.3492L92.0652 12.9278L88.7856 14.6004L87.2465 9.31952L91.1897 9.3492Z" fill="#455A64"/>
<path id="Vector_43" d="M92.9238 13.6168L89.7883 15.6901L89.7501 15.9445L94.6558 17.066L95.3278 13.7122L92.9238 13.6168Z" fill="#17AE42"/>
<path id="Vector_44" d="M92.962 13.3624L89.7883 15.6901L94.694 16.8095L95.3279 13.7122L92.962 13.3624Z" fill="#455A64"/>
<path id="Vector_45" d="M97.0556 7.09776C98.0372 7.66592 98.8343 9.04604 98.8343 10.1802C98.8343 10.742 98.635 11.1364 98.317 11.3208L96.214 12.5356C95.8939 12.72 95.455 12.6967 94.9653 12.4126C93.9816 11.8466 93.1866 10.4664 93.1866 9.33224C93.1866 8.76832 93.3838 8.374 93.7039 8.18956L95.8048 6.9748C96.125 6.784 96.5659 6.8158 97.0556 7.09776Z" fill="#263238"/>
<path id="Vector_46" d="M95.8028 7.47089C96.954 8.13445 97.8889 9.75201 97.8889 11.0749C97.8889 11.7342 97.6557 12.1942 97.2826 12.4126L94.8191 13.8351C94.4439 14.0471 93.9287 14.0217 93.3542 13.691C92.2031 13.0274 91.2703 11.4098 91.2703 10.087C91.2703 9.42553 91.5035 8.96549 91.8766 8.74713L94.34 7.32673C94.7153 7.11049 95.2304 7.14017 95.8028 7.47089Z" fill="#455A64"/>
<path id="Vector_47" d="M93.3542 8.88492C94.5054 9.54848 95.4403 11.166 95.4403 12.4889C95.4403 13.8118 94.5054 14.3566 93.3542 13.691C92.2031 13.0253 91.2703 11.4098 91.2703 10.087C91.2703 8.76408 92.2031 8.21924 93.3542 8.88492Z" fill="#E0E0E0"/>
<path id="Vector_48" d="M93.3542 9.23473C94.3379 9.80289 95.135 11.183 95.135 12.3193C95.135 13.4556 94.34 13.9157 93.3542 13.356C92.3684 12.7963 91.584 11.3992 91.584 10.2629C91.584 9.12661 92.3705 8.66657 93.3542 9.23473Z" fill="white"/>
<path id="Vector_49" d="M95.5293 9.82408L93.95 10.2375L95.5548 15.7919L95.7837 15.7389L96.159 12.8006L95.5293 9.82408Z" fill="#17AE42"/>
<path id="Vector_50" d="M95.5293 9.82408L94.1788 10.1845L95.7837 15.7389L96.3879 12.7497L95.5293 9.82408Z" fill="#263238"/>
<path id="Vector_51" d="M93.9944 8.92945L92.4913 9.26017L87.5984 8.81921L87.6323 8.58813L91.6561 8.58177L94.0283 8.69837L93.9944 8.92945Z" fill="#17AE42"/>
<path id="Vector_52" d="M94.0284 8.69837L92.5253 9.02909L87.6323 8.58813L91.69 8.35281L94.0284 8.69837Z" fill="#263238"/>
<path id="Vector_53" d="M97.9334 11.0685L98.756 10.5958V6.78189L95.47 4.88449L94.6495 5.35937L97.9334 7.25677V11.0685Z" fill="#263238"/>
<path id="Vector_54" opacity="0.05" d="M98.3447 10.8311C98.4669 10.7486 98.5679 10.6384 98.6393 10.5094C98.7108 10.3805 98.7508 10.2364 98.756 10.0891V6.78401L95.4721 4.87601L94.6495 5.35089L97.944 7.25465V10.564C97.944 10.8417 98.1179 10.9625 98.3447 10.8311Z" fill="black"/>
<path id="Vector_55" d="M98.3447 10.5046C98.4123 10.4627 98.4689 10.4052 98.5098 10.337C98.5507 10.2688 98.5748 10.1918 98.58 10.1124C98.58 9.96613 98.4783 9.90042 98.3532 9.98098C98.2872 10.0239 98.2322 10.0818 98.1928 10.1499C98.1534 10.2181 98.1306 10.2946 98.1263 10.3732C98.1179 10.5195 98.2196 10.5767 98.3447 10.5046Z" fill="white"/>
</g>
</g>
<g id="freepik--Microphone--inject-4">
<g id="freepik--microphone--inject-4">
<g id="freepik--Stand--inject-4">
<path id="Vector_56" d="M55.2176 87.927C55.219 87.8487 55.2119 87.7705 55.1964 87.6938C55.0565 86.8246 54.1194 86.2098 53.4283 85.9639H51.1748C50.5048 86.1759 49.5466 86.8246 49.4088 87.6938C49.3916 87.7703 49.3838 87.8486 49.3855 87.927C49.3855 87.9397 49.3855 87.9673 49.3855 87.9673C49.413 88.3764 49.695 88.7792 50.2335 89.093C51.374 89.7502 53.2206 89.7502 54.3611 89.093C54.9017 88.7814 55.1837 88.3764 55.2091 87.9673C55.2134 87.9542 55.2163 87.9407 55.2176 87.927Z" fill="#37474F"/>
<path id="Vector_57" d="M50.8991 86.0974C50.1253 86.5448 50.1253 87.2698 50.8991 87.7171C51.3337 87.9376 51.8141 88.0525 52.3015 88.0525C52.7888 88.0525 53.2692 87.9376 53.7038 87.7171C54.4798 87.2698 54.4798 86.5448 53.7038 86.0974C53.2692 85.877 52.7888 85.762 52.3015 85.762C51.8141 85.762 51.3337 85.877 50.8991 86.0974Z" fill="#455A64"/>
<path id="Vector_58" d="M52.5103 59.9684C52.4449 59.9343 52.3721 59.9164 52.2983 59.9164C52.2245 59.9164 52.1517 59.9343 52.0863 59.9684C52.0625 59.9792 52.0419 59.996 52.0266 60.0172C52.0113 60.0384 52.002 60.0633 51.9994 60.0893V86.8373C52.0018 86.8636 52.0111 86.8889 52.0264 86.9105C52.0416 86.932 52.0623 86.9492 52.0863 86.9603C52.1521 86.9935 52.2247 87.0107 52.2983 87.0107C52.372 87.0107 52.4446 86.9935 52.5103 86.9603C52.5343 86.9492 52.555 86.932 52.5703 86.9105C52.5855 86.8889 52.5948 86.8636 52.5972 86.8373V60.0893C52.5947 60.0633 52.5853 60.0384 52.57 60.0172C52.5548 59.996 52.5342 59.9792 52.5103 59.9684Z" fill="#263238"/>
<path id="Vector_59" opacity="0.25" d="M52.5103 60.0575C52.4449 60.0233 52.3721 60.0055 52.2983 60.0055C52.2245 60.0055 52.1517 60.0233 52.0863 60.0575L52.0418 60.0893H51.9994V60.5896C52.192 60.6542 52.4004 60.6542 52.593 60.5896V60.0978H52.5506L52.5103 60.0575Z" fill="black"/>
<path id="Vector_60" d="M52.7732 57.6937C52.7482 57.6699 52.7205 57.6493 52.6905 57.6322C52.5662 57.5684 52.4285 57.5351 52.2888 57.5351C52.149 57.5351 52.0113 57.5684 51.887 57.6322C51.8571 57.6493 51.8293 57.6699 51.8043 57.6937H51.728V60.1105C51.7324 60.1603 51.7501 60.2079 51.7792 60.2486C51.8083 60.2892 51.8477 60.3213 51.8934 60.3416C52.0177 60.4054 52.1554 60.4386 52.2951 60.4386C52.4349 60.4386 52.5726 60.4054 52.6969 60.3416C52.7426 60.3213 52.782 60.2892 52.8111 60.2486C52.8401 60.2079 52.8578 60.1603 52.8622 60.1105V57.6937H52.7732Z" fill="#37474F"/>
<path id="Vector_61" opacity="0.25" d="M52.0524 57.5665C51.9946 57.581 51.939 57.6031 51.887 57.6322C51.8571 57.6493 51.8293 57.6699 51.8043 57.6937H51.728V60.1105C51.7324 60.1603 51.7501 60.2079 51.7792 60.2486C51.8083 60.2892 51.8477 60.3213 51.8934 60.3416C51.9449 60.3716 52.0007 60.3937 52.0587 60.4073L52.0524 57.5665Z" fill="black"/>
<path id="Vector_62" d="M51.887 57.9248C52.0117 57.9874 52.1493 58.02 52.2888 58.02C52.4283 58.02 52.5659 57.9874 52.6905 57.9248C52.7387 57.9079 52.7804 57.8766 52.8099 57.835C52.8394 57.7934 52.8553 57.7436 52.8553 57.6926C52.8553 57.6416 52.8394 57.5919 52.8099 57.5503C52.7804 57.5087 52.7387 57.4773 52.6905 57.4605C52.5659 57.3978 52.4283 57.3652 52.2888 57.3652C52.1493 57.3652 52.0117 57.3978 51.887 57.4605C51.8389 57.4773 51.7972 57.5087 51.7677 57.5503C51.7381 57.5919 51.7223 57.6416 51.7223 57.6926C51.7223 57.7436 51.7381 57.7934 51.7677 57.835C51.7972 57.8766 51.8389 57.9079 51.887 57.9248Z" fill="#455A64"/>
<path id="Vector_63" d="M52.6524 58.1622C52.6782 58.1435 52.7085 58.1321 52.7402 58.1291C52.7719 58.1262 52.8038 58.1317 52.8326 58.1453L52.9513 58.2131C52.9775 58.2313 52.9983 58.2564 53.0113 58.2855C53.0244 58.3146 53.0293 58.3468 53.0255 58.3785C53.0206 58.467 52.9951 58.5533 52.9509 58.6302C52.9067 58.7072 52.8452 58.7727 52.7711 58.8215C52.745 58.8404 52.7143 58.8519 52.6823 58.8549C52.6502 58.8579 52.6179 58.8522 52.5888 58.8385L52.4722 58.7707C52.4456 58.7527 52.4244 58.7278 52.411 58.6986C52.3975 58.6695 52.3923 58.6372 52.3959 58.6053C52.4008 58.5165 52.4266 58.4301 52.4712 58.3531C52.5157 58.2761 52.5778 58.2107 52.6524 58.1622Z" fill="#17AE42"/>
<path id="Vector_64" d="M52.6524 58.1622C52.6782 58.1435 52.7085 58.1321 52.7402 58.1291C52.7719 58.1262 52.8038 58.1317 52.8326 58.1453L52.9513 58.2131C52.9775 58.2313 52.9983 58.2564 53.0113 58.2855C53.0244 58.3146 53.0293 58.3468 53.0255 58.3785C53.0206 58.467 52.9951 58.5533 52.9509 58.6302C52.9067 58.7072 52.8452 58.7727 52.7711 58.8215C52.745 58.8404 52.7143 58.8519 52.6823 58.8549C52.6502 58.8579 52.6179 58.8522 52.5888 58.8385L52.4722 58.7707C52.4456 58.7527 52.4244 58.7278 52.411 58.6986C52.3975 58.6695 52.3923 58.6372 52.3959 58.6053C52.4008 58.5165 52.4266 58.4301 52.4712 58.3531C52.5157 58.2761 52.5778 58.2107 52.6524 58.1622Z" fill="#17AE42"/>
<path id="Vector_65" opacity="0.15" d="M52.771 58.23C52.6965 58.2786 52.6344 58.3439 52.5898 58.4209C52.5453 58.4979 52.5195 58.5843 52.5145 58.6731C52.5145 58.8364 52.629 58.9021 52.771 58.8215C52.8451 58.7727 52.9067 58.7071 52.9509 58.6302C52.995 58.5533 53.0206 58.467 53.0254 58.3784C53.0254 58.2152 52.911 58.1495 52.771 58.23Z" fill="black"/>
<path id="Vector_66" d="M52.5548 49.5635L52.5103 49.5317C52.4446 49.4985 52.372 49.4812 52.2983 49.4812C52.2247 49.4812 52.1521 49.4985 52.0863 49.5317L52.0418 49.5635H51.9994V57.664C52.0017 57.6901 52.011 57.7151 52.0263 57.7363C52.0416 57.7576 52.0623 57.7743 52.0863 57.7848C52.1517 57.819 52.2245 57.8369 52.2983 57.8369C52.3721 57.8369 52.4449 57.819 52.5103 57.7848C52.5343 57.7743 52.555 57.7576 52.5703 57.7363C52.5856 57.7151 52.5949 57.6901 52.5972 57.664V49.5635H52.5548Z" fill="#263238"/>
<path id="Vector_67" d="M52.0906 49.6843C52.1561 49.7185 52.2288 49.7364 52.3026 49.7364C52.3765 49.7364 52.4492 49.7185 52.5146 49.6843C52.6312 49.6186 52.6312 49.5105 52.5146 49.4426C52.4489 49.4095 52.3763 49.3922 52.3026 49.3922C52.229 49.3922 52.1564 49.4095 52.0906 49.4426C51.974 49.5105 51.974 49.6186 52.0906 49.6843Z" fill="#455A64"/>
<path id="Vector_68" d="M52.7351 49.0399C52.7117 49.0188 52.6861 49.0003 52.6588 48.9847C52.5478 48.9283 52.425 48.8989 52.3005 48.8989C52.176 48.8989 52.0532 48.9283 51.9422 48.9847C51.9149 49.0003 51.8893 49.0188 51.8659 49.0399H51.7938V49.5063C51.7966 49.5518 51.812 49.5957 51.8382 49.6331C51.8644 49.6705 51.9004 49.7 51.9422 49.7183C52.0532 49.7747 52.176 49.8041 52.3005 49.8041C52.425 49.8041 52.5478 49.7747 52.6588 49.7183C52.7006 49.7 52.7366 49.6705 52.7628 49.6331C52.789 49.5957 52.8044 49.5518 52.8072 49.5063V49.0399H52.7351Z" fill="#17AE42"/>
<path id="Vector_69" opacity="0.25" d="M52.0885 48.9275C52.0372 48.9391 51.9878 48.9584 51.9422 48.9847C51.9149 49.0003 51.8893 49.0188 51.8659 49.0399H51.7938V49.5063C51.7966 49.5518 51.812 49.5957 51.8382 49.6331C51.8644 49.6705 51.9004 49.7 51.9422 49.7183C51.9882 49.7444 52.0374 49.7643 52.0885 49.7776V48.9275Z" fill="black"/>
<path id="Vector_70" d="M51.94 49.2476C52.051 49.304 52.1738 49.3334 52.2983 49.3334C52.4228 49.3334 52.5456 49.304 52.6566 49.2476C52.7128 49.2476 52.7667 49.2253 52.8065 49.1855C52.8463 49.1458 52.8686 49.0918 52.8686 49.0356C52.8686 48.9794 52.8463 48.9255 52.8065 48.8857C52.7667 48.8459 52.7128 48.8236 52.6566 48.8236C52.5456 48.7672 52.4228 48.7378 52.2983 48.7378C52.1738 48.7378 52.051 48.7672 51.94 48.8236C51.8838 48.8236 51.8299 48.8459 51.7901 48.8857C51.7504 48.9255 51.728 48.9794 51.728 49.0356C51.728 49.0918 51.7504 49.1458 51.7901 49.1855C51.8299 49.2253 51.8838 49.2476 51.94 49.2476Z" fill="#17AE42"/>
<path id="Vector_71" opacity="0.3" d="M51.94 49.2476C52.051 49.304 52.1738 49.3334 52.2983 49.3334C52.4228 49.3334 52.5456 49.304 52.6566 49.2476C52.7128 49.2476 52.7667 49.2253 52.8065 49.1855C52.8463 49.1458 52.8686 49.0918 52.8686 49.0356C52.8686 48.9794 52.8463 48.9255 52.8065 48.8857C52.7667 48.8459 52.7128 48.8236 52.6566 48.8236C52.5456 48.7672 52.4228 48.7378 52.2983 48.7378C52.1738 48.7378 52.051 48.7672 51.94 48.8236C51.8838 48.8236 51.8299 48.8459 51.7901 48.8857C51.7504 48.9255 51.728 48.9794 51.728 49.0356C51.728 49.0918 51.7504 49.1458 51.7901 49.1855C51.8299 49.2253 51.8838 49.2476 51.94 49.2476Z" fill="white"/>
<path id="Vector_72" d="M47.9566 34.9524C47.6347 34.5133 47.1515 34.2201 46.6134 34.1372C46.0753 34.0543 45.5263 34.1885 45.0872 34.5104C44.648 34.8323 44.3548 35.3155 44.2719 35.8536C44.189 36.3917 44.3232 36.9407 44.6451 37.3798L45.9871 39.2115C46.309 39.6507 46.7921 39.9439 47.3303 40.0268C47.8684 40.1097 48.4174 39.9754 48.8565 39.6535C49.2956 39.3317 49.5889 38.8485 49.6718 38.3104C49.7547 37.7723 49.6204 37.2233 49.2985 36.7841L47.9566 34.9524Z" fill="#455A64"/>
<path id="Vector_73" d="M48.8554 39.644C49.1849 39.4028 49.4349 39.0688 49.5735 38.6847C49.7121 38.3007 49.733 37.884 49.6334 37.488C49.29 37.683 47.5558 38.6836 47.3014 38.8214C47.047 38.9592 46.322 38.2808 45.563 37.1827C44.8041 36.0845 44.3398 35.5736 44.7723 34.7956C44.4607 35.1464 44.2788 35.5934 44.2568 36.0621C44.2348 36.5308 44.3741 36.9929 44.6514 37.3714L45.9934 39.203C46.3149 39.6405 46.7967 39.9326 47.3332 40.0153C47.8698 40.0979 48.4172 39.9644 48.8554 39.644Z" fill="#263238"/>
<path id="Vector_74" d="M48.0032 38.8405L49.6949 41.1492L48.8236 42.9067L47.1318 40.598L48.0032 38.8405Z" fill="#17AE42"/>
<path id="Vector_75" opacity="0.2" d="M48.0032 38.8405L49.6949 41.1492L48.8236 42.9067L47.1318 40.598L48.0032 38.8405Z" fill="black"/>
<path id="Vector_76" d="M49.6949 41.1492L51.8446 39.909L50.1529 37.6003L48.0032 38.8405L49.6949 41.1492Z" fill="#17AE42"/>
<path id="Vector_77" d="M48.8236 42.9067L50.9733 41.6644L51.8446 39.909L49.6949 41.1492L48.8236 42.9067Z" fill="#17AE42"/>
<path id="Vector_78" opacity="0.35" d="M48.8236 42.9067L50.9733 41.6644L51.8446 39.909L49.6949 41.1492L48.8236 42.9067Z" fill="black"/>
<path id="Vector_79" d="M52.6376 49.0759C52.6376 49.2879 51.9719 49.2879 51.9719 49.0759C51.9719 46.5722 51.9719 43.7335 50.2059 41.6008C50.0618 41.4248 50.5748 41.0008 50.719 41.1768C52.6376 43.4939 52.6376 46.5891 52.6376 49.0759Z" fill="#263238"/>
<path id="Vector_80" d="M52.5761 48.459C52.5897 48.4514 52.605 48.4474 52.6206 48.4474C52.6362 48.4474 52.6515 48.4514 52.6651 48.459L52.7266 48.4929C52.7394 48.5027 52.7495 48.5157 52.7558 48.5305C52.7621 48.5454 52.7645 48.5616 52.7626 48.5777C52.7599 48.622 52.747 48.6652 52.7249 48.7038C52.7029 48.7424 52.6722 48.7754 52.6354 48.8003C52.6214 48.8079 52.6058 48.8119 52.5898 48.8119C52.5739 48.8119 52.5583 48.8079 52.5443 48.8003L52.4849 48.7664C52.4715 48.757 52.4609 48.7441 52.4542 48.7292C52.4475 48.7143 52.4449 48.6978 52.4467 48.6816C52.4494 48.6369 52.4625 48.5936 52.485 48.5549C52.5074 48.5163 52.5386 48.4834 52.5761 48.459Z" fill="#17AE42"/>
<path id="Vector_81" d="M52.5761 48.459C52.5897 48.4514 52.605 48.4474 52.6206 48.4474C52.6362 48.4474 52.6515 48.4514 52.6651 48.459L52.7266 48.4929C52.7394 48.5027 52.7495 48.5157 52.7558 48.5305C52.7621 48.5454 52.7645 48.5616 52.7626 48.5777C52.7599 48.622 52.747 48.6652 52.7249 48.7038C52.7029 48.7424 52.6722 48.7754 52.6354 48.8003C52.6214 48.8079 52.6058 48.8119 52.5898 48.8119C52.5739 48.8119 52.5583 48.8079 52.5443 48.8003L52.4849 48.7664C52.4715 48.757 52.4609 48.7441 52.4542 48.7292C52.4475 48.7143 52.4449 48.6978 52.4467 48.6816C52.4494 48.6369 52.4625 48.5936 52.485 48.5549C52.5074 48.5163 52.5386 48.4834 52.5761 48.459Z" fill="#17AE42"/>
<path id="Vector_82" opacity="0.15" d="M52.6291 48.495C52.5913 48.5191 52.5598 48.5518 52.5373 48.5906C52.5148 48.6293 52.5019 48.6729 52.4998 48.7176C52.4998 48.7982 52.557 48.8321 52.6291 48.7918C52.6659 48.7669 52.6965 48.7339 52.7186 48.6953C52.7406 48.6567 52.7535 48.6136 52.7563 48.5692C52.7563 48.4865 52.699 48.4526 52.6291 48.495Z" fill="black"/>
</g>
</g>
</g>
<g id="freepik--character-1--inject-4">
<g id="freepik--Chartacter--inject-4">
<g id="freepik--character--inject-4_4">
<g id="freepik--Bottom--inject-4">
<g id="freepik--bottom--inject-4">
<path id="Vector_83" d="M27.418 86.7228L28.2723 86.3137L27.4328 86.0762L27.418 86.7228Z" fill="#263238"/>
<path id="Vector_84" d="M35.8598 88.3298C35.8598 88.3298 25.8343 83.7782 25.705 84.446C25.6773 84.5788 25.6773 84.7159 25.705 84.8488C25.6958 84.8373 25.6873 84.8252 25.6796 84.8127L25.864 86.072C26.3103 86.4365 26.8519 86.6653 27.4243 86.7313C27.4243 86.6698 27.4243 86.3073 27.4392 86.0847C27.7485 86.2133 28.0445 86.3716 28.3232 86.5575C28.9592 86.9815 29.3832 87.7235 30.0531 88.5842C30.5471 89.2202 31.4332 89.5085 32.7498 89.7036C34.1659 89.9156 35.4167 89.6506 35.7708 89.2796C36.04 88.97 35.9107 88.4188 35.8598 88.3298Z" fill="#263238"/>
<path id="Vector_85" d="M35.5842 88.0966C35.4867 87.997 35.1305 87.6026 34.6493 87.1744C34.1891 86.7398 33.7072 86.3287 33.2056 85.9427C32.9511 85.7645 32.7115 85.566 32.489 85.3491C32.3152 85.1625 32.1498 84.9675 31.9951 84.7661C31.5206 84.1314 31.1181 83.446 30.7951 82.7224C30.6106 82.3835 30.4682 82.0232 30.3711 81.6497C30.2995 81.258 30.2626 80.8607 30.2609 80.4625C30.2609 78.669 30.3012 78.3849 30.3181 77.0196L26.0781 77.1298C26.2117 77.8867 26.4173 78.9212 26.4852 79.782C26.5869 81.09 26.6209 81.3826 26.0951 82.6821C25.9403 83.0658 25.7114 83.4347 25.6902 83.846C25.652 84.5138 26.1799 85.0947 26.7735 85.4275C27.2632 85.701 27.8335 85.8218 28.3063 86.1144C28.7901 86.4446 29.2109 86.8589 29.5486 87.3376C29.8857 87.7616 30.1528 88.2747 30.6255 88.58C31.1492 88.917 31.6516 89.023 32.2601 89.1502C32.9855 89.2831 33.7248 89.3251 34.4606 89.2753C35.5015 89.2011 36.2817 88.828 35.5842 88.0966Z" fill="#FFA8A7"/>
<path id="Vector_86" d="M35.0118 87.3631C34.5878 87.0006 33.9709 86.479 33.2331 85.8939C32.9786 85.8046 32.708 85.7699 32.4392 85.7922C32.1703 85.8145 31.9092 85.8932 31.6728 86.0232C30.1719 86.7907 29.9111 87.8888 29.9111 87.8888C30.161 88.3872 30.5964 88.7678 31.1237 88.9488C32.8431 89.7057 35.934 89.4894 35.9701 88.705C35.9934 88.2068 35.5355 87.804 35.0118 87.3631ZM26.1905 82.4002C26.1905 82.4002 26.0887 82.6567 25.8216 83.1612C25.5545 83.6658 25.5015 84.1682 25.8216 84.677C25.99 84.9415 26.2105 85.1688 26.4697 85.3452C26.7288 85.5216 27.0212 85.6434 27.3289 85.7031C27.8208 84.2149 26.7883 82.7266 26.1905 82.4002Z" fill="#37474F"/>
<path id="Vector_87" d="M18.1642 84.4269C18.4483 84.8763 18.0794 86.5723 18.1451 87.7786C18.2045 88.8746 18.5013 90.7869 18.1579 91.8702C17.7529 93.1422 16.9261 94.6432 15.3912 93.4411C14.4394 92.6949 13.8945 91.7324 13.7631 90.153C13.674 89.0548 14.1193 87.539 14.5009 86.1928C14.9482 84.6219 15.1178 83.7803 15.1178 83.7803L18.1642 84.4269Z" fill="#263238"/>
<path id="Vector_88" d="M15.0118 76.3391C14.9016 78.8958 15.2047 80.6914 15.2238 82.3302C15.2179 83.0732 15.139 83.8138 14.9885 84.5414C14.7765 85.5865 14.397 87.0408 14.2422 87.7214C14.0302 88.669 13.8585 89.2647 14.1914 90.3268C14.2195 90.41 14.2557 90.4903 14.2995 90.5664C14.7659 91.4398 15.9467 92.1013 16.3262 91.9953C16.4047 92.0911 16.5085 92.163 16.6258 92.2027C16.7431 92.2424 16.8692 92.2484 16.9898 92.22C17.0321 92.2129 17.0738 92.203 17.1148 92.1903C17.1577 92.1765 17.1995 92.1595 17.2399 92.1394C17.3958 92.0569 17.5329 91.9429 17.6424 91.8046C17.7519 91.6663 17.8314 91.5067 17.8759 91.336C17.9004 91.2601 17.9209 91.1829 17.9374 91.1049C18.213 89.7862 18.0116 88.934 17.9862 88.4188C17.9565 87.8252 17.9862 87.0684 18.0455 86.108C18.1049 85.1477 18.3317 82.1352 18.6815 80.6936C18.9338 79.6887 19.2476 78.4273 19.5783 77.0896L15.0118 76.3391Z" fill="#FFA8A7"/>
<path id="Vector_89" d="M14.0091 88.9488C14.9419 88.546 17.6427 88.4888 18.0752 89.782C18.0752 90.9989 18.0922 91.8236 17.3099 92.8836C16.2711 94.2891 14.9164 92.7988 14.3949 91.8511C13.8734 90.9035 13.8819 89.606 14.0091 88.9488Z" fill="#37474F"/>
<path id="Vector_90" d="M17.9988 44.52C16.6823 46.7354 16.3156 48.3975 15.9721 54.2466C15.5842 60.8482 15.6414 63.3626 15.6075 64.1576C15.5736 64.9526 15.0266 66.4154 14.5623 70.3395C14.098 74.2636 14.5835 83.7739 14.5835 83.7739C14.5835 83.7739 14.9142 84.4099 16.5127 84.5583C17.9967 84.6919 18.8447 84.2064 18.8447 84.2064C18.8447 84.2064 21.6134 72.6142 22.0459 70.2144C22.6247 67.0068 24.0366 59.2264 24.0366 59.2264L24.9503 65.5377C24.9503 65.5377 24.4839 67.7022 24.9058 71.1472C25.3277 74.5922 26.1566 81.5352 26.1566 81.5352C26.8794 81.8178 27.6365 82.0032 28.408 82.0864C29.2439 82.1798 30.09 82.0879 30.8863 81.8172C30.8863 81.8172 32.1286 67.7891 32.1583 63.8862C32.188 59.9833 31.4693 50.3012 30.2058 44.5136L17.9988 44.52Z" fill="#455A64"/>
<path id="Vector_91" d="M25.1475 53.1251L24.0473 59.307L24.9589 65.5398L24.785 59.572L25.968 53.7611C27.2887 53.5491 28.724 51.8828 29.1056 50.5811C27.7467 52.3513 25.1475 53.1251 25.1475 53.1251ZM20.7761 47.2548C20.9584 46.6379 21.1513 46.0252 21.3655 45.4104C20.9953 45.9563 20.6881 46.5423 20.4496 47.1573C20.2057 47.7622 19.9997 48.3817 19.8327 49.0123C19.6666 49.6408 19.5343 50.2777 19.4363 50.9203C19.3306 51.5586 19.2789 52.2046 19.2815 52.8516C19.4553 52.2156 19.6165 51.6008 19.7755 50.9796C19.9345 50.3585 20.0935 49.7331 20.2631 49.114C20.4327 48.495 20.5917 47.8717 20.7761 47.2548ZM19.7733 46.7842C20.0023 46.4089 20.2334 46.0337 20.4454 45.6372C20.095 45.9303 19.7734 46.2561 19.485 46.6103C19.1969 46.9546 18.9334 47.3187 18.6964 47.7C18.465 48.0821 18.2658 48.4828 18.1007 48.8978C17.9318 49.3045 17.8198 49.7325 17.7678 50.1698L18.4165 49.0165C18.6285 48.6392 18.8554 48.2618 19.0843 47.8908C19.3133 47.5198 19.5401 47.1615 19.767 46.7842H19.7733ZM19.2921 72.8029C18.9416 74.8 18.6201 76.8005 18.3275 78.8046C18.7897 76.826 19.2243 74.8431 19.6313 72.8559C20.0553 70.8674 20.4327 68.883 20.8143 66.8839C21.1959 64.8847 21.3973 62.8559 21.569 60.8461C21.7407 58.8364 21.8637 56.8181 21.9569 54.7914C21.6919 56.799 21.4609 58.8194 21.2255 60.8186C20.9902 62.8177 20.7379 64.8338 20.3775 66.8203C20.0171 68.8067 19.6292 70.808 19.2921 72.8029ZM30.1953 61.3337C30.2313 62.2114 30.2822 63.0912 30.2589 63.9583C30.2355 64.8254 30.1677 65.7094 30.1126 66.585L29.9472 69.2201C29.8356 70.9783 29.7458 72.7372 29.678 74.4968C29.9154 72.7485 30.1204 70.9974 30.2928 69.2434C30.4624 67.4881 30.6235 65.7391 30.7019 63.9668C30.7019 62.186 30.5599 60.437 30.403 58.6795C30.2461 56.922 30.0235 55.1709 29.7416 53.4282L30.0596 58.7007C30.1041 59.572 30.1529 60.456 30.1889 61.3337H30.1953Z" fill="#37474F"/>
</g>
</g>
<g id="freepik--Top--inject-4">
<g id="freepik--Arm--inject-4">
<path id="Vector_92" d="M45.0417 28.2405C45.631 27.9077 45.1222 26.2392 44.6473 25.5481C44.1725 24.857 43.4771 24.0641 42.7754 24.522C42.0737 24.98 42.6206 26.5848 43.1337 27.2399C43.6467 27.895 44.4311 28.7938 45.0417 28.2405Z" fill="#263238"/>
<path id="Vector_93" d="M42.8432 24.539C43.8884 23.761 45.1328 22.7921 45.4784 22.349C46.0932 21.5583 46.3476 21.0325 47.0111 20.4856C47.6747 19.9386 48.6393 18.8913 49.4937 18.0518C50.348 17.2123 50.6999 16.8434 51.0285 17.049C51.3571 17.2547 50.7953 17.914 50.4625 18.3634C50.1297 18.8129 49.5891 19.574 49.5891 19.574C49.5891 19.574 50.7296 18.7556 51.0095 18.6263C51.5842 18.4085 52.1701 18.2217 52.7648 18.0666C53.0468 18.0052 53.1994 18.4355 52.892 18.7493C52.5846 19.063 51.3338 19.5846 51.3338 19.5846C50.968 19.8159 50.6142 20.0657 50.2738 20.3329C50.1784 20.4559 50.2738 20.5598 50.4985 20.4792C50.7233 20.3986 51.5988 19.9322 51.9126 19.8432C52.2263 19.7542 53.1401 19.4955 53.3563 19.4531C53.5725 19.4107 53.7803 19.805 53.4644 20.0531C53.1829 20.2568 52.8859 20.4383 52.5761 20.5958C52.6508 20.6254 52.7156 20.6755 52.7629 20.7404C52.8102 20.8054 52.8381 20.8824 52.8433 20.9626C52.8433 21.217 52.5571 21.3866 52.0483 21.6452C51.5395 21.9038 50.6024 22.349 50.6024 22.349C50.6024 22.349 50.2505 22.7328 49.8943 23.0656C49.5382 23.3984 49.4407 23.8267 48.5778 24.2867C47.9418 24.6238 47.7659 24.522 46.9391 25.4188C46.4048 26.0018 44.1831 28.2002 44.1831 28.2002C44.1831 28.2002 42.3726 26.8456 42.8432 24.539Z" fill="#FFA8A7"/>
<path id="Vector_94" d="M49.3728 19.3662C50.2208 19.8114 50.9352 21.1746 50.6745 22.1222C50.7381 21.5943 50.5409 21.0792 50.3183 20.6128C50.1056 20.1298 49.7816 19.7041 49.3728 19.3704V19.3662Z" fill="#F28F8F"/>
<path id="Vector_95" d="M50.6427 21.3378C51.3122 21.1697 51.9586 20.9205 52.5677 20.5958C51.8981 20.7636 51.2516 21.0128 50.6427 21.3378Z" fill="#F28F8F"/>
<path id="Vector_96" d="M47.5835 18.444C47.31 18.48 47.2951 18.8235 47.1425 19.2157C47.0048 19.624 46.7839 19.9994 46.4938 20.3181C45.7412 21.1661 45.8366 22.5208 46.0125 23.8564C47.1595 23.1377 47.6789 21.5731 47.7658 21.164C47.893 20.5449 48.0541 20.2778 48.1495 19.6142C48.2449 18.9507 47.8548 18.4164 47.5835 18.444Z" fill="#FFA8A7"/>
<path id="Vector_97" d="M46.4939 20.3266C46.9772 19.8305 47.079 19.1542 47.3419 18.5458C47.6344 18.1557 48.0415 18.6263 48.1326 18.9358C48.3701 19.5888 48.0203 20.2651 47.9694 20.9159C47.9249 21.2382 47.9694 21.5646 47.9545 21.9038C47.94 22.24 47.8529 22.5691 47.6992 22.8684C47.5455 23.1678 47.3289 23.4303 47.0641 23.638C47.3093 23.4186 47.5064 23.151 47.6433 22.8518C47.7801 22.5527 47.8536 22.2285 47.8591 21.8996C47.8697 21.5774 47.8167 21.2403 47.8591 20.9053C47.8973 20.2545 48.2407 19.6121 48.0287 18.974C47.9545 18.7366 47.6641 18.3126 47.4224 18.6009C47.3434 18.7409 47.2828 18.8905 47.2422 19.0461C47.0929 19.5225 46.8353 19.9579 46.4896 20.3181L46.4939 20.3266Z" fill="#F28F8F"/>
<path id="Vector_98" d="M42.7754 24.522L44.1661 23.496C44.1661 23.496 43.9032 23.992 44.4947 25.0181C45.383 26.5572 46.091 26.3177 46.091 26.3177L44.1682 28.372C43.7972 28.3614 43.1866 28.037 42.5867 26.871C42.1563 26.0336 41.8277 25.2725 42.7754 24.522Z" fill="#E0E0E0"/>
<path id="Vector_99" d="M31.1175 38.5098C31.692 36.7014 32.5591 36.3898 35.0691 35.175C37.1361 34.1638 38.2173 33.8628 39.1692 33.1589C40.1211 32.4551 45.0416 28.2405 45.0416 28.2405C44.5922 28.4207 43.9032 28.1706 43.1188 26.7565C42.6312 25.881 42.5549 24.804 42.7753 24.5199C42.7753 24.5199 37.9269 27.7211 37.0789 28.3359C36.2309 28.9507 32.8622 29.627 31.2786 29.928C29.9197 30.1888 27.541 30.4835 27.541 30.4835L31.1175 38.5098Z" fill="#455A64"/>
<path id="Vector_100" d="M31.1175 38.5098C31.692 36.7014 32.5591 36.3898 35.0691 35.175C37.1361 34.1638 38.2173 33.8628 39.1692 33.1589C40.1211 32.4551 45.0416 28.2405 45.0416 28.2405C44.5922 28.4207 43.9032 28.1706 43.1188 26.7565C42.6312 25.881 42.5549 24.804 42.7753 24.5199C42.7753 24.5199 37.9269 27.7211 37.0789 28.3359C36.2309 28.9507 32.8622 29.627 31.2786 29.928C29.9197 30.1888 27.541 30.4835 27.541 30.4835L31.1175 38.5098Z" fill="#17AE42"/>
<path id="Vector_101" opacity="0.15" d="M31.1175 38.5098C31.692 36.7014 32.5591 36.3898 35.0691 35.175C37.1361 34.1638 38.2173 33.8628 39.1692 33.1589C40.1211 32.4551 45.0416 28.2405 45.0416 28.2405C44.5922 28.4207 43.9032 28.1706 43.1188 26.7565C42.6312 25.881 42.5549 24.804 42.7753 24.5199C42.7753 24.5199 37.9269 27.7211 37.0789 28.3359C36.2309 28.9507 32.8622 29.627 31.2786 29.928C29.9197 30.1888 27.541 30.4835 27.541 30.4835L31.1175 38.5098Z" fill="black"/>
<path id="Vector_102" opacity="0.15" d="M31.7153 35.5884C31.4545 35.0415 30.6786 33.1441 29.1967 32.1964L28.5077 32.6713L31.1174 38.5162C31.5986 37.0025 32.2877 36.5424 33.9731 35.7135C33.9731 35.7135 32.0735 36.3368 31.7153 35.5884Z" fill="black"/>
</g>
<path id="freepik--Chest--inject-4" d="M16.8053 48.2046C15.9001 47.3036 17.0745 46.004 17.3501 42.1477C17.4201 41.1492 17.0873 38.6794 17.0873 38.6794C17.0873 38.6794 18.8341 36.6527 18.2511 31.8424L23.0063 30.7633L25.4676 30.7167L27.5876 31.3166C28.1918 31.8572 29.3006 32.7158 30.1804 34.0154C31.4524 35.8916 31.6411 37.931 30.2715 39.4214C30.2503 39.7161 30.2143 42.4064 30.4517 43.5469C30.6807 44.6408 30.9648 45.5652 30.5514 46.3411C28.6773 49.3494 19.909 51.092 16.8053 48.2046Z" fill="#FAFAFA"/>
<path id="Vector_103" d="M25.4677 30.7167L27.541 30.5047C29.237 31.8403 31.2849 34.8252 31.357 36.6315C31.4152 37.6459 31.31 38.663 31.0454 39.644C31.0454 39.644 30.8525 43.3858 31.2319 45.332C31.5146 46.7962 31.7973 48.2611 32.0799 49.7267C32.1965 50.3373 32.0206 50.6871 31.5287 51.0962C31.124 51.4372 30.6141 51.6281 30.085 51.6368C30.0523 51.6437 30.0183 51.6423 29.9863 51.6326C29.9543 51.6229 29.9252 51.6054 29.9018 51.5815C29.8783 51.5576 29.8613 51.5282 29.8522 51.4961C29.8431 51.4639 29.8422 51.4299 29.8497 51.3973C29.8879 46.4386 29.8497 42.3152 29.5487 37.7763C29.3642 35.0351 27.6173 32.5505 25.4677 30.7167Z" fill="#17AE42"/>
<path id="Vector_104" d="M20.9605 30.9774V31.1894C21.677 32.6883 21.8975 33.7525 22.1244 35.156C22.394 36.7949 22.4949 38.4572 22.4254 40.1168C22.2537 44.3101 21.605 48.5014 21.9166 52.6841C21.928 52.7329 21.9283 52.7836 21.9172 52.8324C21.9062 52.8812 21.8843 52.927 21.853 52.9661C21.8064 53.0003 21.7515 53.0215 21.694 53.0276C19.9768 53.3265 17.9331 52.8898 16.3346 52.2622C15.8364 52.0672 15.5863 51.8912 15.5608 51.3252C15.529 50.6108 15.794 49.7246 15.9615 49.0208C16.3781 47.2682 16.6721 45.4887 16.8413 43.6953C17.0194 41.1513 16.4428 40.0023 16.5042 37.4244C16.5509 35.527 17.8398 33.7737 17.878 31.8763L20.9605 30.9774Z" fill="#17AE42"/>
<g id="freepik--arm--inject-4">
<path id="Vector_105" d="M24.8507 38.7133C25.6987 38.1833 26.1227 37.9862 26.517 37.9141C26.9113 37.842 28.2639 37.4074 28.7791 37.3268C29.1077 37.276 29.1925 37.7954 28.7536 38.1091C28.4165 38.3508 27.5707 38.6328 27.1954 38.7981C26.8202 38.9635 26.0421 39.7542 26.0421 39.7542L24.8507 38.7133Z" fill="#F28F8F"/>
<path id="Vector_106" d="M14.3991 34.0578C15.317 32.7858 16.5509 32.5738 17.4794 32.2664C19.1394 34.1956 17.6024 38.1303 17.6024 38.1303L16.0781 41.8679C16.0781 41.8679 20.8523 41.5965 21.4269 41.2976C22.0014 40.9987 23.5977 39.5549 24.1299 39.1267C24.8507 38.5458 25.175 38.6603 25.5079 38.7409C26.6039 39.0059 26.8392 39.1203 27.0597 39.2899C27.1249 39.3437 27.1755 39.4131 27.2066 39.4917C27.2378 39.5703 27.2485 39.6555 27.2378 39.7394C27.5282 39.803 27.9713 39.8327 27.9861 40.3203C27.9989 40.4504 27.9931 40.5818 27.9692 40.7103C28.0432 40.7296 28.1079 40.7747 28.1515 40.8376C28.3635 41.1428 27.8653 42.0884 27.577 42.3046C27.365 42.4572 27.1042 42.453 26.7587 42.3746C26.464 42.3088 26.6293 42.0184 26.6293 42.0184L26.2053 42.0057C25.2471 42.5675 25.0902 43.8331 23.8733 44.0091C23.3749 44.0141 22.8781 44.0659 22.3893 44.1638C19.7457 44.7998 15.3085 47.047 13.0041 47.0428C10.7527 47.0428 10.9223 45.8556 11.0071 44.484C11.0897 43.2607 13.2967 35.5799 14.3991 34.0578Z" fill="#FFA8A7"/>
<path id="Vector_107" d="M19.08 41.6326L20.8057 41.4206C20.8057 41.4206 20.4283 41.747 20.4304 42.9046C20.4326 44.0621 21.0495 44.5857 21.0495 44.5857L18.4885 45.58L19.08 41.6326Z" fill="#FAFAFA"/>
<path id="Vector_108" d="M16.2138 41.4078L16.0781 41.8679C15.0393 42.0396 13.727 43.2777 13.4344 43.8119C13.7016 42.947 14.3821 41.728 16.2138 41.4078Z" fill="#F28F8F"/>
<path id="Vector_109" d="M17.8844 31.8784C17.4506 31.9786 17.0253 32.1126 16.6124 32.2791C15.9191 32.5568 15.0033 32.9787 14.5178 33.6635C13.7758 34.7065 13.3009 35.722 12.6925 37.6109C12.1137 39.4087 11.2085 42.3746 10.9965 43.9709C10.7845 45.5673 10.8799 46.3029 11.2509 46.6718C11.6219 47.0407 12.5229 47.3735 13.9433 47.0619C15.3637 46.7502 19.5783 45.4761 19.5783 45.4761C19.5783 45.4761 19.0504 45.4613 19.0186 43.8946C18.9868 42.3279 19.4065 41.5859 19.4065 41.5859L16.1884 41.7979L17.7233 38.637C17.7233 38.637 18.8808 35.6923 17.8844 31.8784Z" fill="#17AE42"/>
<path id="Vector_110" opacity="0.15" d="M17.8844 31.8784C17.4506 31.9786 17.0253 32.1126 16.6124 32.2791C15.9191 32.5568 15.0033 32.9787 14.5178 33.6635C13.7758 34.7065 13.3009 35.722 12.6925 37.6109C12.1137 39.4087 11.2085 42.3746 10.9965 43.9709C10.7845 45.5673 10.8799 46.3029 11.2509 46.6718C11.6219 47.0407 12.5229 47.3735 13.9433 47.0619C15.3637 46.7502 19.5783 45.4761 19.5783 45.4761C19.5783 45.4761 19.0504 45.4613 19.0186 43.8946C18.9868 42.3279 19.4065 41.5859 19.4065 41.5859L16.1884 41.7979L17.7233 38.637C17.7233 38.637 18.8808 35.6923 17.8844 31.8784Z" fill="black"/>
<path id="Vector_111" opacity="0.15" d="M16.1799 41.7916C15.0521 41.9209 13.867 42.3703 13.2925 43.4028C13.7949 41.6622 15.5227 41.2828 16.4428 41.2531L16.1799 41.7916Z" fill="black"/>
<path id="Vector_112" d="M27.2378 39.7394L25.9446 39.3599L27.2272 39.555C27.2422 39.6152 27.2458 39.6778 27.2378 39.7394Z" fill="#F28F8F"/>
<path id="Vector_113" d="M27.9692 40.704L26.4703 40.3754L27.9861 40.528C27.9876 40.5872 27.9819 40.6462 27.9692 40.704Z" fill="#F28F8F"/>
<path id="Vector_114" d="M27.4774 41.482C27.4076 41.4999 27.3368 41.5134 27.2654 41.5223C27.1 41.535 26.7354 41.5117 26.7354 41.5117C26.7354 41.5117 26.7142 41.6177 26.5234 41.7852C26.4227 41.8625 26.3172 41.9333 26.2075 41.9972L26.6315 42.0099C26.7482 41.8825 26.9105 41.8063 27.0831 41.7979C27.1538 41.7933 27.2241 41.8127 27.2824 41.853C27.3424 41.9005 27.3903 41.9616 27.4223 42.0311C27.4069 41.9503 27.3669 41.8763 27.3078 41.8191C27.2649 41.7802 27.2121 41.7538 27.1552 41.7428L27.259 41.5647C27.3391 41.5557 27.4176 41.5358 27.4922 41.5054C27.5764 41.4733 27.6499 41.4182 27.7042 41.3464C27.6394 41.4076 27.562 41.4539 27.4774 41.482Z" fill="#F28F8F"/>
</g>
<path id="Vector_115" d="M27.3014 24.8252C29.1289 24.1383 29.4002 21.1322 28.054 19.8093C27.1887 18.7893 25.9996 18.0972 24.6853 17.8487C23.371 17.6002 22.0112 17.8104 20.8333 18.444C19.1945 19.3196 18.5607 20.3902 18.5607 21.624C16.6696 24.38 19.5486 27.5939 21.3675 29.4489C24.1278 29.1246 25.0394 25.881 27.3014 24.8252Z" fill="#263238"/>
<g id="freepik--Head--inject-4">
<g id="freepik--head--inject-4">
<g id="freepik--head--inject-4_2">
<path id="Vector_116" d="M20.2884 27.702C20.0404 27.7449 19.7855 27.7241 19.5478 27.6414C19.3101 27.5587 19.0973 27.4169 18.9295 27.2293C18.1981 26.4724 18.1069 25.6817 18.4207 25.1432C18.6793 24.7022 19.3386 24.4054 19.8156 24.6832C20.3266 24.9821 20.3499 25.2386 20.5513 25.5863C20.7527 25.934 21.2276 25.6435 21.0219 24.2231C21.9802 23.7376 21.7745 22.1031 22.2812 21.4311C23.072 20.3711 24.4351 20.5831 24.8824 20.8269C25.1434 20.6303 25.4537 20.51 25.779 20.4793C26.1042 20.4486 26.4316 20.5088 26.7247 20.653C27.3416 20.9583 27.8504 21.501 28.1388 23.1356C28.1684 23.2967 28.0222 23.9836 28.0836 24.1574C28.8638 26.3728 28.073 28.5373 27.4943 29.1012C27.0957 29.4913 26.341 29.769 25.4315 29.7372L25.4676 30.7103C25.4676 30.7103 28.1706 33.3667 24.8188 33.2183C24.0688 33.1743 23.3369 32.9701 22.6724 32.6194C22.0079 32.2687 21.4263 31.7796 20.9668 31.1852L20.829 27.2717C20.829 27.2717 20.776 27.5918 20.2884 27.702Z" fill="#FFA8A7"/>
<path id="Vector_117" d="M25.9679 27.136C25.9538 27.2345 25.92 27.3292 25.8687 27.4145C25.8174 27.4997 25.7496 27.5739 25.6692 27.6326C25.5888 27.6912 25.4975 27.7332 25.4007 27.7561C25.3038 27.779 25.2033 27.7822 25.1052 27.7657C25.0071 27.7491 24.9132 27.7131 24.8292 27.6598C24.7452 27.6064 24.6727 27.5368 24.616 27.455C24.5593 27.3732 24.5195 27.2809 24.499 27.1835C24.4785 27.0862 24.4777 26.9857 24.4966 26.888L25.9679 27.136Z" fill="#B16668"/>
<path id="Vector_118" d="M24.4987 27.136C24.5231 27.2898 24.5951 27.432 24.7047 27.5427C24.8142 27.6534 24.9557 27.7269 25.1092 27.7529C25.1961 27.7688 25.2852 27.7688 25.3721 27.7529C25.3379 27.5554 25.2267 27.3795 25.063 27.2638C24.8992 27.1481 24.6963 27.1022 24.4987 27.136Z" fill="#F28F8F"/>
<path id="Vector_119" d="M24.3206 24.3609C24.2949 24.4398 24.2466 24.5094 24.1818 24.5611C24.117 24.6128 24.0384 24.6444 23.9558 24.6519C23.8732 24.6594 23.7902 24.6425 23.7171 24.6033C23.644 24.5641 23.584 24.5044 23.5445 24.4314C23.505 24.3585 23.4878 24.2756 23.495 24.1929C23.5022 24.1103 23.5334 24.0316 23.5849 23.9666C23.6364 23.9015 23.7058 23.853 23.7845 23.827C23.8633 23.801 23.9479 23.7987 24.028 23.8203C24.1379 23.8542 24.23 23.9297 24.2848 24.0308C24.3395 24.1319 24.3523 24.2504 24.3206 24.3609Z" fill="#263238"/>
<path id="Vector_120" d="M27.5727 23.038L26.6611 22.5844C26.6878 22.5235 26.7265 22.4687 26.775 22.4233C26.8235 22.3778 26.8807 22.3427 26.9431 22.3201C27.0056 22.2975 27.072 22.2879 27.1384 22.2917C27.2047 22.2956 27.2695 22.3129 27.3289 22.3427C27.4507 22.4055 27.5438 22.5126 27.5891 22.6419C27.6345 22.7712 27.6286 22.9129 27.5727 23.038Z" fill="#263238"/>
<path id="Vector_121" d="M26.6251 24.238C26.6595 24.3134 26.7154 24.3771 26.7857 24.4211C26.856 24.4651 26.9377 24.4875 27.0206 24.4856C27.1036 24.4836 27.1841 24.4574 27.2523 24.4101C27.3204 24.3629 27.3732 24.2966 27.4042 24.2197C27.4351 24.1427 27.4427 24.0583 27.4261 23.977C27.4096 23.8958 27.3695 23.8211 27.311 23.7624C27.2524 23.7036 27.1779 23.6633 27.0967 23.6465C27.0155 23.6297 26.9311 23.637 26.854 23.6677C26.7484 23.7134 26.6651 23.799 26.6223 23.9057C26.5794 24.0125 26.5804 24.1319 26.6251 24.238Z" fill="#263238"/>
<path id="Vector_122" d="M23.9962 22.8621L23.0528 23.409C23.0143 23.3494 22.9883 23.2826 22.9764 23.2126C22.9645 23.1426 22.967 23.071 22.9836 23.002C23.0003 22.933 23.0308 22.8681 23.0733 22.8112C23.1158 22.7544 23.1694 22.7068 23.2309 22.6713C23.3586 22.5989 23.5093 22.5783 23.6517 22.6138C23.7941 22.6493 23.9175 22.7382 23.9962 22.8621Z" fill="#263238"/>
<path id="Vector_123" d="M27.0724 25.4782L25.775 26.0696L25.2747 23.6995L27.0724 25.4782Z" fill="#F28F8F"/>
</g>
</g>
<path id="Vector_124" d="M25.44 29.7436C24.1319 29.7436 22.366 29.3196 21.8699 28.4928C22.1582 29.3938 23.0931 29.8369 23.8351 30.0213C24.3624 30.1553 24.9026 30.232 25.4463 30.2503L25.44 29.7436Z" fill="#F28F8F"/>
</g>
</g>
</g>
</g>
</g>
<g id="freepik--speech-bubble--inject-4">
<g id="freepik--speech-bubble--inject-4_2">
<path id="Vector_125" d="M22.86 8.88916C21.7491 7.2716 18.779 5.93599 15.1093 5.89571C11.7682 5.86603 7.70412 6.84759 6.68864 10.0552C5.82156 12.7921 8.48004 15.334 11.2594 15.8767C12.3606 16.0916 13.4786 16.2094 14.6005 16.2286C15.1135 17.189 16.3177 17.7783 17.225 17.8398C16.8339 17.3613 16.6211 16.7618 16.623 16.1438C17.4875 16.0674 18.345 15.9257 19.1882 15.7198C23.9963 14.5178 24.1023 10.6975 22.86 8.88916Z" fill="#17AE42"/>
<path id="Vector_126" opacity="0.6" d="M22.86 8.88916C21.7491 7.2716 18.779 5.93599 15.1093 5.89571C11.7682 5.86603 7.70412 6.84759 6.68864 10.0552C5.82156 12.7921 8.48004 15.334 11.2594 15.8767C12.3606 16.0916 13.4786 16.2094 14.6005 16.2286C15.1135 17.189 16.3177 17.7783 17.225 17.8398C16.8339 17.3613 16.6211 16.7618 16.623 16.1438C17.4875 16.0674 18.345 15.9257 19.1882 15.7198C23.9963 14.5178 24.1023 10.6975 22.86 8.88916Z" fill="white"/>
</g>
</g>
<g id="freepik--Podium--inject-4">
<g id="freepik--podium--inject-4">
<g id="freepik--podium--inject-4_2">
<path id="Vector_127" d="M35.7157 102.169V99.3686L49.6992 91.2936V94.0962L35.7157 102.169Z" fill="#EBEBEB"/>
<path id="Vector_128" d="M35.7156 99.3686L23.5383 92.3387V95.1392L35.7156 102.169V99.3686Z" fill="#E0E0E0"/>
<path id="Vector_129" opacity="0.1" d="M35.7156 99.3686L23.5383 92.3387V95.1392L35.7156 102.169V99.3686Z" fill="black"/>
<path id="Vector_130" d="M35.7156 99.3686L23.5383 92.3387L38.5246 84.8424L49.6991 91.2936L35.7156 99.3686Z" fill="#F5F5F5"/>
<path id="Vector_131" d="M35.7157 98.2154L47.7022 91.2936L49.0547 55.1984L35.7157 62.8983V98.2154Z" fill="#EBEBEB"/>
<path id="Vector_132" d="M35.7156 98.2154L25.5354 92.3387L24.1849 56.2415L35.7156 62.8983V98.2154Z" fill="#E0E0E0"/>
<path id="Vector_133" opacity="0.1" d="M35.7156 98.2154L25.5354 92.3387L24.1849 56.2415L35.7156 62.8983V98.2154Z" fill="black"/>
<path id="Vector_134" opacity="0.2" d="M48.8957 59.4236L49.0547 55.1984L35.7156 62.8983L24.1849 56.2415L24.3418 60.4666L35.7156 67.0323L48.8957 59.4236Z" fill="black"/>
<path id="Vector_135" d="M38.141 66.4472L46.6274 61.5457L45.8281 89.5636L38.141 94.0135V66.4472Z" fill="#E0E0E0"/>
<path id="Vector_136" d="M45.3999 63.636L44.6452 88.864L39.3346 91.9444V67.1404L45.3999 63.6382M45.7327 63.0997L39.0356 66.9666V92.4638L44.9441 89.04L45.7433 63.0912L45.7327 63.0997Z" fill="#F5F5F5"/>
<path id="Vector_137" d="M34.7786 65.7115V61.8404L53.5109 51.0263V54.8953L34.7786 65.7115Z" fill="#EBEBEB"/>
<path id="Vector_138" d="M34.7786 61.8404L21.6643 56.0888V58.141L34.7786 65.7115V61.8404Z" fill="#E0E0E0"/>
<path id="Vector_139" d="M34.7786 61.8404L21.6643 56.0888L40.3987 45.2726L53.5109 51.0263L34.7786 61.8404Z" fill="#FAFAFA"/>
</g>
</g>
</g>
<g id="freepik--Paper--inject-4">
<g id="freepik--paper--inject-4">
<path id="Vector_140" d="M39.1776 71.8786L50.668 65.2324C50.5993 65.0273 50.5628 64.8127 50.5599 64.5964V54.5264C50.5602 53.9424 50.3906 53.3708 50.0718 52.8815C49.7529 52.3921 49.2986 52.0061 48.7642 51.7704L37.1954 46.6824C36.9786 46.5864 36.7942 46.4295 36.6648 46.2309C36.5353 46.0322 36.4663 45.8002 36.4661 45.563C36.4662 45.4919 36.4733 45.4208 36.4873 45.351L25.8513 51.499H25.3255C25.048 51.5024 24.7799 51.6003 24.5655 51.7764C24.351 51.9526 24.2029 52.1965 24.1457 52.4681C24.0884 52.7396 24.1253 53.0226 24.2504 53.2703C24.3755 53.5181 24.5812 53.7159 24.8337 53.831L36.4025 58.919C36.9373 59.1544 37.392 59.5403 37.7113 60.0297C38.0305 60.5191 38.2004 61.0908 38.2003 61.675V71.745C38.2003 72.3386 38.5056 72.9937 38.8808 73.2121C39.256 73.4304 39.5592 73.2651 39.5592 72.8474C39.5592 72.4298 39.3917 71.9952 39.1776 71.8786Z" fill="#17AE42"/>
<path id="Vector_141" opacity="0.8" d="M39.1776 71.8786L50.668 65.2324C50.5993 65.0273 50.5628 64.8127 50.5599 64.5964V54.5264C50.5602 53.9424 50.3906 53.3708 50.0718 52.8815C49.7529 52.3921 49.2986 52.0061 48.7642 51.7704L37.1954 46.6824C36.9786 46.5864 36.7942 46.4295 36.6648 46.2309C36.5353 46.0322 36.4663 45.8002 36.4661 45.563C36.4662 45.4919 36.4733 45.4208 36.4873 45.351L25.8513 51.499H25.3255C25.048 51.5024 24.7799 51.6003 24.5655 51.7764C24.351 51.9526 24.2029 52.1965 24.1457 52.4681C24.0884 52.7396 24.1253 53.0226 24.2504 53.2703C24.3755 53.5181 24.5812 53.7159 24.8337 53.831L36.4025 58.919C36.9373 59.1544 37.392 59.5403 37.7113 60.0297C38.0305 60.5191 38.2004 61.0908 38.2003 61.675V71.745C38.2003 72.3386 38.5056 72.9937 38.8808 73.2121C39.256 73.4304 39.5592 73.2651 39.5592 72.8474C39.5592 72.4298 39.3917 71.9952 39.1776 71.8786Z" fill="white"/>
<path id="Vector_142" d="M37.6915 44.344C37.4746 44.3439 37.2617 44.4017 37.0746 44.5115L24.7532 51.6368C24.9313 51.5395 25.1311 51.4885 25.3341 51.4884H25.8641L36.5001 45.3404L38.2237 44.3419L37.6915 44.344Z" fill="#17AE42"/>
<path id="Vector_143" opacity="0.9" d="M37.6915 44.344C37.4746 44.3439 37.2617 44.4017 37.0746 44.5115L24.7532 51.6368C24.9313 51.5395 25.1311 51.4885 25.3341 51.4884H25.8641L36.5001 45.3404L38.2237 44.3419L37.6915 44.344Z" fill="white"/>
<path id="Vector_144" d="M51.9251 65.703C51.9251 65.279 51.7513 64.855 51.5372 64.7342L50.6679 65.2324L39.1691 71.8786C39.3811 71.9931 39.5591 72.4277 39.5591 72.8474C39.5669 72.9261 39.554 73.0055 39.5216 73.0776C39.4893 73.1497 39.4386 73.2122 39.3747 73.2587L51.7279 66.1228H51.7407C51.8059 66.0755 51.8574 66.0117 51.8898 65.9379C51.9222 65.8642 51.9344 65.7831 51.9251 65.703Z" fill="#17AE42"/>
<path id="Vector_145" opacity="0.5" d="M51.9251 65.703C51.9251 65.279 51.7513 64.855 51.5372 64.7342L50.6679 65.2324L39.1691 71.8786C39.3811 71.9931 39.5591 72.4277 39.5591 72.8474C39.5669 72.9261 39.554 73.0055 39.5216 73.0776C39.4893 73.1497 39.4386 73.2122 39.3747 73.2587L51.7279 66.1228H51.7407C51.8059 66.0755 51.8574 66.0117 51.8898 65.9379C51.9222 65.8642 51.9344 65.7831 51.9251 65.703Z" fill="white"/>
<path id="Vector_146" opacity="0.2" d="M38.8872 73.2121C39.2625 73.4241 39.5656 73.2651 39.5656 72.8474C39.5656 72.4298 39.3918 71.9994 39.1777 71.8786L50.6681 65.2324C50.5994 65.0273 50.5629 64.8127 50.5599 64.5964V54.5264C50.5616 53.983 50.415 53.4493 50.1359 52.983L37.7721 60.1211C38.0523 60.5892 38.1989 61.1252 38.1961 61.6708V71.7408C38.2067 72.3386 38.512 72.9937 38.8872 73.2121Z" fill="#17AE42"/>
</g>
</g>
</g>
</svg>
