<svg width="17" height="17" viewBox="0 0 17 17" fill="none" xmlns="http://www.w3.org/2000/svg">
<path d="M11.2331 8.06946C11.3175 8.63816 11.2203 9.21898 10.9555 9.72929C10.6907 10.2396 10.2718 10.6534 9.75824 10.9119C9.2447 11.1704 8.66273 11.2604 8.09511 11.169C7.52749 11.0777 7.00313 10.8097 6.5966 10.4032C6.19007 9.99663 5.92208 9.47226 5.83074 8.90464C5.7394 8.33702 5.82937 7.75506 6.08785 7.24152C6.34633 6.72798 6.76015 6.30902 7.27046 6.04423C7.78078 5.77944 8.36159 5.6823 8.93029 5.76663C9.51039 5.85265 10.0474 6.12296 10.4621 6.53764C10.8768 6.95231 11.1471 7.48936 11.2331 8.06946Z" stroke="white" stroke-width="1.36667" stroke-linecap="round" stroke-linejoin="round"/>
<path d="M11.9168 1.66675H5.08348C3.1965 1.66675 1.66681 3.19644 1.66681 5.08341V11.9167C1.66681 13.8037 3.1965 15.3334 5.08348 15.3334H11.9168C13.8038 15.3334 15.3335 13.8037 15.3335 11.9167V5.08341C15.3335 3.19644 13.8038 1.66675 11.9168 1.66675Z" stroke="white" stroke-width="1.36667" stroke-linecap="round" stroke-linejoin="round"/>
<path d="M12.2583 4.74146H12.2648" stroke="white" stroke-width="1.36667" stroke-linecap="round" stroke-linejoin="round"/>
</svg>
