<svg width="99" height="99" viewBox="0 0 99 99" fill="none" xmlns="http://www.w3.org/2000/svg">
<g id="Slot machine-bro 1">
<g id="freepik--background-simple--inject-319">
<path id="Vector" d="M3.12644 49.5C3.12644 49.5 3.08486 65.7261 16.1251 76.0874C29.1654 86.4488 47.7259 86.5815 62.7383 87.0784C77.7506 87.5754 89.6049 78.5644 91.7968 65.4964C93.9886 52.4284 82.6215 48.9971 76.8933 34.3946C71.1652 19.7921 71.8899 14.8936 59.004 6.23898C46.1182 -2.4156 25.2767 3.90258 13.9115 19.901C2.5463 35.8994 3.12644 49.5 3.12644 49.5Z" fill="#009C1A"/>
<path id="Vector_2" opacity="0.7" d="M3.12644 49.5C3.12644 49.5 3.08486 65.7261 16.1251 76.0874C29.1654 86.4488 47.7259 86.5815 62.7383 87.0784C77.7506 87.5754 89.6049 78.5644 91.7968 65.4964C93.9886 52.4284 82.6215 48.9971 76.8933 34.3946C71.1652 19.7921 71.8899 14.8936 59.004 6.23898C46.1182 -2.4156 25.2767 3.90258 13.9115 19.901C2.5463 35.8994 3.12644 49.5 3.12644 49.5Z" fill="white"/>
</g>
<g id="freepik--Shadow--inject-319">
<path id="Vector_3" opacity="0.2" d="M51.084 17.6557V17.3587C51.0835 16.7024 50.8226 16.0732 50.3586 15.6092C49.8945 15.1451 49.2653 14.8842 48.609 14.8837H44.2748C45.2755 14.4474 46.0955 13.6798 46.5969 12.7101C47.0982 11.7403 47.2504 10.6275 47.0279 9.5588C46.8053 8.49005 46.2215 7.53052 45.3747 6.84155C44.5279 6.15259 43.4697 5.7762 42.378 5.77567H28.908C27.8164 5.7762 26.7581 6.15259 25.9113 6.84155C25.0645 7.53052 24.4807 8.49005 24.2582 9.5588C24.0356 10.6275 24.1878 11.7403 24.6891 12.7101C25.1905 13.6798 26.0105 14.4474 27.0112 14.8837H22.968V21.4177H20.695V27.9517H22.968V36.3568L19.0556 57.8041H18.414L16.434 65.1301H4.96192L3.73828 69.7297H7.30228L6.77164 72.5017H7.24882L10.8683 74.1847V91.7077H44.154V91.773H55.044V17.6557H51.084Z" fill="black"/>
</g>
<g id="freepik--slot-machine--inject-319">
<path id="Vector_4" d="M69.0446 72.7987H43.5026V91.6087H69.0446V72.7987Z" fill="white" stroke="#263238" stroke-miterlimit="10"/>
<path id="Vector_5" d="M44.8509 73.3927H40.8612V91.6087H44.8509V73.3927Z" fill="white" stroke="#263238" stroke-miterlimit="10"/>
<path id="Vector_6" d="M67.4249 72.4027H36.7864L37.5804 68.2447H68.1852L67.4249 72.4027Z" fill="white" stroke="#263238" stroke-miterlimit="10"/>
<path id="Vector_7" d="M72.27 15.1807H58.806C57.5719 15.1807 56.3884 14.6904 55.5158 13.8178C54.6432 12.9452 54.153 11.7617 54.153 10.5277C54.153 9.29361 54.6432 8.1101 55.5158 7.2375C56.3884 6.36489 57.5719 5.87466 58.806 5.87466H72.27C73.504 5.87466 74.6875 6.36489 75.5601 7.2375C76.4327 8.1101 76.923 9.29361 76.923 10.5277C76.923 11.7617 76.4327 12.9452 75.5601 13.8178C74.6875 14.6904 73.504 15.1807 72.27 15.1807Z" fill="white" stroke="#263238" stroke-miterlimit="10"/>
<path id="Vector_8" d="M72.0719 13.9927H59.0039C58.085 13.9927 57.2036 13.6276 56.5538 12.9778C55.904 12.328 55.5389 11.4466 55.5389 10.5277C55.5387 10.0726 55.6281 9.62187 55.8022 9.20136C55.9762 8.78085 56.2314 8.39877 56.5532 8.07696C56.875 7.75516 57.2571 7.49994 57.6776 7.3259C58.0981 7.15186 58.5488 7.06241 59.0039 7.06267H72.0719C72.9909 7.06267 73.8722 7.42773 74.5221 8.07754C75.1719 8.72736 75.5369 9.60869 75.5369 10.5277C75.5364 11.4465 75.1712 12.3275 74.5215 12.9772C73.8718 13.6269 72.9908 13.9921 72.0719 13.9927Z" fill="#009C1A" stroke="#263238" stroke-miterlimit="10"/>
<path id="Vector_9" d="M74.1569 91.674H84.8489V17.7547H79.3049L79.1069 21.3187V37.1587L71.9789 72.2047L74.1569 73.3927V91.674Z" fill="#263238" stroke="#263238" stroke-miterlimit="10"/>
<path id="Vector_10" d="M53.2659 21.5167H50.6919V27.8527H53.2659V21.5167Z" fill="#263238" stroke="#263238" stroke-miterlimit="10"/>
<path id="Vector_11" d="M77.0775 14.9827H78.4991C79.1292 14.9827 79.7336 15.233 80.1792 15.6786C80.6248 16.1242 80.8751 16.7285 80.8751 17.3587V36.2083L73.0719 72.0067L75.0163 73.3927L69.0387 73.4917L66.6765 72.4027L66.8607 69.5337L69.1971 69.6307L73.1333 57.9031L77.0775 36.3667V14.9827Z" fill="white" stroke="#263238" stroke-miterlimit="10"/>
<path id="Vector_12" d="M81.6412 36.3667H80.8492V52.2067H81.6412V36.3667Z" fill="#009C1A" stroke="#263238" stroke-miterlimit="10"/>
<path id="Vector_13" d="M82.566 36.3667C82.5664 36.1054 82.4893 35.8498 82.3444 35.6324C82.1995 35.415 81.9934 35.2454 81.7521 35.1451C81.5108 35.0449 81.2452 35.0184 80.9889 35.0692C80.7326 35.1199 80.4971 35.2455 80.3122 35.4301C80.1273 35.6148 80.0013 35.8501 79.9502 36.1063C79.8991 36.3625 79.9251 36.6282 80.025 36.8696C80.1249 37.1111 80.2942 37.3174 80.5114 37.4626C80.7286 37.6078 80.9841 37.6853 81.2453 37.6853C81.4187 37.6856 81.5904 37.6517 81.7506 37.5855C81.9108 37.5194 82.0564 37.4223 82.1791 37.2998C82.3017 37.1773 82.399 37.0319 82.4654 36.8718C82.5318 36.7116 82.566 36.54 82.566 36.3667Z" fill="#009C1A" stroke="#263238" stroke-miterlimit="10"/>
<path id="Vector_14" d="M81.3126 54.9787C82.5155 54.9787 83.4906 53.6782 83.4906 52.074C83.4906 50.4698 82.5155 49.1693 81.3126 49.1693C80.1098 49.1693 79.1346 50.4698 79.1346 52.074C79.1346 53.6782 80.1098 54.9787 81.3126 54.9787Z" fill="#009C1A" stroke="#263238" stroke-miterlimit="10"/>
<path id="Vector_15" d="M80.1305 21.5167H77.5565V27.8527H80.1305V21.5167Z" fill="#263238" stroke="#263238" stroke-miterlimit="10"/>
<path id="Vector_16" d="M77.9189 14.9827H52.9709V36.5647H77.9189V14.9827Z" fill="white" stroke="#263238" stroke-miterlimit="10"/>
<path id="Vector_17" d="M76.1369 17.7547H54.7529V34.1887H76.1369V17.7547Z" fill="#009C1A" stroke="#263238" stroke-miterlimit="10"/>
<path id="Vector_18" d="M49.0287 57.9487H73.9767L77.9189 36.3667H52.9709L49.0287 57.9487Z" fill="white" stroke="#263238" stroke-miterlimit="10"/>
<path id="Vector_19" d="M51.2444 55.5727H72.6284L76.1369 36.3667H54.7529L51.2444 55.5727Z" fill="white" stroke="#263238" stroke-miterlimit="10"/>
<path id="Vector_20" d="M76.1369 14.9827H54.7529V16.3687H76.1369V14.9827Z" fill="white" stroke="#263238" stroke-miterlimit="10"/>
<path id="Vector_21" d="M45.2192 69.6307H71.2325L73.9768 57.9031H48.3773L45.2192 69.6307Z" fill="white" stroke="#263238" stroke-miterlimit="10"/>
<path id="Vector_22" d="M43.8629 69.6307H67.4249L68.4149 65.2291H44.8549L43.8629 69.6307Z" fill="#A6A6A6" stroke="#263238" stroke-miterlimit="10"/>
<path id="Vector_23" d="M33.7649 69.6307H61.576L62.7462 65.2291H34.9351L33.7649 69.6307Z" fill="#263238" stroke="#263238" stroke-miterlimit="10"/>
<path id="Vector_24" d="M55.0914 62.9383H49.8385L50.9235 59.9287H56.1765L55.0914 62.9383Z" fill="#009C1A" stroke="#263238" stroke-miterlimit="10"/>
<path id="Vector_25" d="M62.762 62.9383H57.509L58.5921 59.9287H63.845L62.762 62.9383Z" fill="#009C1A" stroke="#263238" stroke-miterlimit="10"/>
<path id="Vector_26" d="M70.4306 62.9383H65.1776L66.2627 59.9287H71.5156L70.4306 62.9383Z" fill="#009C1A" stroke="#263238" stroke-miterlimit="10"/>
<path id="Vector_27" d="M37.1665 72.4027L45.2489 76.1647H68.4149V73.3927L67.4249 72.4027H37.1665Z" fill="#263238" stroke="#263238" stroke-miterlimit="10"/>
<path id="Vector_28" d="M59.2338 40.2792C59.3924 39.0868 58.7741 38.0208 57.8528 37.8982C56.9314 37.7756 56.0558 38.6428 55.8972 39.8351C55.7385 41.0275 56.3568 42.0935 57.2782 42.2161C58.1995 42.3387 59.0751 41.4715 59.2338 40.2792Z" fill="#009C1A" stroke="#263238" stroke-miterlimit="10"/>
<path id="Vector_29" d="M58.2994 46.0885C58.4581 44.8962 57.8398 43.8302 56.9184 43.7076C55.9971 43.585 55.1215 44.4522 54.9628 45.6445C54.8042 46.8369 55.4225 47.9029 56.3438 48.0255C57.2652 48.1481 58.1408 47.2809 58.2994 46.0885Z" fill="white" stroke="#263238" stroke-miterlimit="10"/>
<path id="Vector_30" d="M56.8158 51.8305C56.9745 50.6381 56.3562 49.5722 55.4348 49.4495C54.5134 49.3269 53.6379 50.1941 53.4792 51.3865C53.3205 52.5789 53.9388 53.6449 54.8602 53.7675C55.7816 53.8901 56.6571 53.0229 56.8158 51.8305Z" fill="white" stroke="#263238" stroke-miterlimit="10"/>
<path id="Vector_31" d="M63.5972 40.2797C63.7558 39.0873 63.1375 38.0213 62.2162 37.8987C61.2948 37.7761 60.4192 38.6433 60.2606 39.8357C60.1019 41.028 60.7202 42.094 61.6416 42.2166C62.5629 42.3392 63.4385 41.472 63.5972 40.2797Z" fill="white" stroke="#263238" stroke-miterlimit="10"/>
<path id="Vector_32" d="M62.6648 46.089C62.8235 44.8967 62.2052 43.8307 61.2838 43.7081C60.3624 43.5855 59.4869 44.4527 59.3282 45.645C59.1695 46.8374 59.7878 47.9034 60.7092 48.026C61.6306 48.1486 62.5061 47.2814 62.6648 46.089Z" fill="#009C1A" stroke="#263238" stroke-miterlimit="10"/>
<path id="Vector_33" d="M61.1792 51.831C61.3379 50.6387 60.7196 49.5727 59.7982 49.45C58.8768 49.3274 58.0013 50.1946 57.8426 51.387C57.6839 52.5794 58.3022 53.6454 59.2236 53.768C60.145 53.8906 61.0205 53.0234 61.1792 51.831Z" fill="white" stroke="#263238" stroke-miterlimit="10"/>
<path id="Vector_34" d="M67.9628 40.2782C68.1214 39.0858 67.5031 38.0198 66.5818 37.8972C65.6604 37.7746 64.7848 38.6418 64.6262 39.8342C64.4675 41.0266 65.0858 42.0926 66.0072 42.2152C66.9285 42.3378 67.8041 41.4706 67.9628 40.2782Z" fill="#009C1A" stroke="#263238" stroke-miterlimit="10"/>
<path id="Vector_35" d="M67.0282 46.0896C67.1869 44.8972 66.5686 43.8312 65.6472 43.7086C64.7258 43.586 63.8503 44.4532 63.6916 45.6456C63.5329 46.8379 64.1512 47.9039 65.0726 48.0265C65.994 48.1491 66.8695 47.2819 67.0282 46.0896Z" fill="#009C1A" stroke="#263238" stroke-miterlimit="10"/>
<path id="Vector_36" d="M65.5426 51.8315C65.7013 50.6392 65.083 49.5732 64.1616 49.4506C63.2402 49.328 62.3647 50.1952 62.206 51.3875C62.0473 52.5799 62.6656 53.6459 63.587 53.7685C64.5084 53.8911 65.3839 53.0239 65.5426 51.8315Z" fill="#009C1A" stroke="#263238" stroke-miterlimit="10"/>
<path id="Vector_37" d="M72.3313 40.2811C72.1709 41.4691 71.2958 42.3423 70.3751 42.2195C69.4544 42.0968 68.8346 41.0315 68.9891 39.8435C69.1435 38.6555 70.0246 37.7843 70.9453 37.9071C71.866 38.0299 72.4897 39.0892 72.3313 40.2811Z" fill="#009C1A" stroke="#263238" stroke-miterlimit="10"/>
<path id="Vector_38" d="M71.3918 46.0881C71.5505 44.8957 70.9322 43.8297 70.0108 43.7071C69.0895 43.5845 68.2139 44.4517 68.0552 45.6441C67.8966 46.8365 68.5149 47.9025 69.4362 48.0251C70.3576 48.1477 71.2332 47.2805 71.3918 46.0881Z" fill="#009C1A" stroke="#263238" stroke-miterlimit="10"/>
<path id="Vector_39" d="M69.9082 51.8301C70.0669 50.6377 69.4486 49.5717 68.5272 49.4491C67.6058 49.3265 66.7303 50.1937 66.5716 51.3861C66.4129 52.5784 67.0312 53.6444 67.9526 53.767C68.874 53.8897 69.7495 53.0225 69.9082 51.8301Z" fill="#009C1A" stroke="#263238" stroke-miterlimit="10"/>
<path id="Vector_40" d="M71.2225 20.9227H58.7485V23.8927H71.2225V20.9227Z" fill="white"/>
<path id="Vector_41" d="M60.0831 26.8627H56.5706V31.0207H60.0831V26.8627Z" fill="white"/>
<path id="Vector_42" d="M61.2532 28.6447H64.4311" stroke="#263238" stroke-miterlimit="10"/>
<path id="Vector_43" d="M69.4484 26.8627H65.9359V31.0207H69.4484V26.8627Z" fill="white"/>
<path id="Vector_44" d="M70.6187 28.6447H73.7966" stroke="#263238" stroke-miterlimit="10"/>
<path id="Vector_45" d="M74.1926 73.3927H68.4149V91.6087H74.1926V73.3927Z" fill="white" stroke="#263238" stroke-miterlimit="10"/>
<path id="Vector_46" d="M58.014 9.05058C58.41 9.05058 58.6238 9.29214 58.6238 9.71388V9.79704H58.2278V9.68814C58.2278 9.49014 58.1526 9.42876 58.0199 9.42876C57.8873 9.42876 57.8219 9.50004 57.8219 9.68814C57.8219 10.2307 58.6317 10.3336 58.6317 11.088C58.6317 11.5097 58.4199 11.7513 58.014 11.7513C57.6081 11.7513 57.3804 11.5097 57.3804 11.088V10.9256H57.7764V11.1236C57.7764 11.3117 57.8595 11.3791 57.9922 11.3791C58.1249 11.3791 58.208 11.3117 58.208 11.1236C58.208 10.5811 57.3962 10.4782 57.3962 9.72378C57.3923 9.29214 57.6002 9.05058 58.014 9.05058Z" fill="#263238"/>
<path id="Vector_47" d="M58.8555 9.08029H59.2693V11.3434H59.9524V11.7196H58.8555V9.08029Z" fill="#263238"/>
<path id="Vector_48" d="M60.0989 9.71388C60.0989 9.29214 60.3226 9.05058 60.7285 9.05058C61.1344 9.05058 61.3601 9.29214 61.3601 9.71388V11.088C61.3601 11.5097 61.1364 11.7513 60.7285 11.7513C60.3206 11.7513 60.0989 11.5097 60.0989 11.088V9.71388ZM60.5147 11.1137C60.5147 11.3018 60.5978 11.3731 60.7285 11.3731C60.8592 11.3731 60.9443 11.3018 60.9443 11.1137V9.68814C60.9443 9.49014 60.8612 9.42876 60.7285 9.42876C60.5959 9.42876 60.5147 9.50004 60.5147 9.68814V11.1137Z" fill="#263238"/>
<path id="Vector_49" d="M61.5067 9.08029H62.7878V9.45847H62.3542V11.7196H61.9403V9.45847H61.5067V9.08029Z" fill="#263238"/>
<path id="Vector_50" d="M64.4331 10.9554L64.7143 9.08029H65.2925V11.7196H64.8965V9.82873L64.6094 11.7196H64.2134L63.9045 9.85447V11.7196H63.558V9.08029H64.1342L64.4331 10.9554Z" fill="#263238"/>
<path id="Vector_51" d="M66.9359 11.7196H66.528L66.4547 11.2425H65.934L65.8627 11.7196H65.4825L65.9043 9.08029H66.5121L66.9359 11.7196ZM65.9894 10.89H66.3854L66.1874 9.55549L65.9894 10.89Z" fill="#263238"/>
<path id="Vector_52" d="M68.3278 10.7356V11.088C68.3278 11.5097 68.116 11.7513 67.7081 11.7513C67.3002 11.7513 67.0903 11.5097 67.0903 11.088V9.71388C67.0903 9.29214 67.3022 9.05058 67.7081 9.05058C68.114 9.05058 68.3278 9.29214 68.3278 9.71388V9.97128H67.9318V9.68814C67.9318 9.49014 67.8487 9.42876 67.716 9.42876C67.5834 9.42876 67.5022 9.50004 67.5022 9.68814V11.1137C67.5022 11.3018 67.5834 11.3692 67.716 11.3692C67.8487 11.3692 67.9318 11.3018 67.9318 11.1137V10.7356H68.3278Z" fill="#263238"/>
<path id="Vector_53" d="M68.995 11.7196H68.5792V9.08029H68.995V10.2129H69.4663V9.08029H69.8939V11.7196H69.4722V10.5891H69.001L68.995 11.7196Z" fill="#263238"/>
<path id="Vector_54" d="M70.1909 9.08029H70.6047V11.7196H70.1909V9.08029Z" fill="#263238"/>
<path id="Vector_55" d="M71.28 9.80893V11.7196H70.9058V9.08029H71.4265L71.8522 10.6643V9.08029H72.2225V11.7196H71.7968L71.28 9.80893Z" fill="#263238"/>
<path id="Vector_56" d="M72.9313 10.1931H73.5015V10.5712H72.9313V11.3434H73.656V11.7196H72.5254V9.08029H73.656V9.45847H72.9392L72.9313 10.1931Z" fill="#263238"/>
</g>
<g id="freepik--Character--inject-319">
<path id="Vector_57" d="M43.6373 44.6371C43.6373 44.6371 45.6014 44.4629 45.5321 44.8826C45.4628 45.3024 44.4788 45.1282 44.2689 45.1638C44.059 45.1994 43.5601 45.342 43.5601 45.342C43.5601 45.342 44.6134 45.4469 44.8946 45.6568C45.1757 45.8667 45.5955 46.1142 45.3143 46.2884C45.0332 46.4627 44.6827 46.1835 44.4035 46.1835C44.1244 46.1835 43.3145 46.1142 43.3145 46.1142C43.3145 46.1142 44.1224 46.6389 44.1224 46.8844C44.1224 47.1299 43.8412 47.1299 43.7264 47.0606C43.6115 46.9913 43.1997 46.6745 42.9898 46.6389C42.7799 46.6033 41.7266 46.6052 41.7266 46.6052L41.2712 46.7438C41.2712 46.7438 41.0593 46.8151 41.0593 46.2528C41.0593 45.6905 42.3582 44.7797 42.6037 44.744C42.8492 44.7084 43.6373 44.6371 43.6373 44.6371Z" fill="white" stroke="#263238" stroke-miterlimit="10"/>
<path id="Vector_58" d="M38.515 46.6033C38.515 46.6033 40.9346 45.4806 41.6018 45.0589C42.2691 44.6371 43.1462 44.0055 43.9521 44.0055C44.758 44.0055 44.8292 44.356 44.5837 44.3916C43.9906 44.556 43.4239 44.8041 42.9007 45.1282C42.4433 45.445 41.9107 45.7954 41.9107 45.7954C42.4303 45.7923 42.9481 45.7332 43.4551 45.6192C44.1224 45.445 44.263 45.5499 44.0867 45.936C43.9105 46.3221 42.7186 46.427 42.473 46.4963C42.2275 46.5656 41.8414 47.128 41.3147 47.4091C40.7881 47.6903 38.6477 48.1813 38.6477 48.1813L38.515 46.6033Z" fill="white" stroke="#263238" stroke-miterlimit="10"/>
<path id="Vector_59" d="M31.8365 67.2962C31.8365 67.2962 30.896 70.9513 31.0445 73.7708C31.193 76.5904 33.6046 83.9025 33.761 84.5797C33.9174 85.2568 34.1253 85.9379 33.761 86.6171C33.3967 87.2962 33.0819 88.1833 33.1868 88.5971C33.2918 89.0109 33.4462 91.3691 33.4462 91.3691H33.864L34.2818 89.3891C34.2818 89.3891 35.3272 89.9098 35.6915 90.3276C36.0558 90.7454 36.1628 91.0067 36.6815 91.2166C37.2003 91.4265 39.604 91.5295 39.7624 91.2166C39.9208 90.9038 39.5525 90.7454 38.9268 90.3276C38.4598 89.9825 38.0386 89.5793 37.6735 89.1277C37.6735 89.1277 36.4202 87.0388 36.1588 86.1577C35.8974 85.2766 35.846 78.3763 35.8974 76.2359C35.9489 74.0956 36.5766 67.9338 36.5766 67.9338L31.8365 67.2962Z" fill="white" stroke="#263238" stroke-miterlimit="10"/>
<path id="Vector_60" d="M38.9387 90.3236C38.7899 90.2235 38.6483 90.113 38.515 89.993C38.4991 90.0504 38.3645 90.1157 37.8418 90.1157C36.9013 90.1157 36.3271 89.1257 34.6559 88.2367C34.0956 87.9377 33.6659 87.718 33.3571 87.5556C33.2125 87.9734 33.1353 88.3634 33.1947 88.601C33.2977 89.0188 33.4541 91.373 33.4541 91.373H33.8719L34.2896 89.393C34.2896 89.393 35.3351 89.9138 35.6994 90.3316C36.0637 90.7493 36.1706 91.0107 36.6894 91.2206C37.2082 91.4305 39.6119 91.5334 39.7703 91.2206C39.9287 90.9077 39.5644 90.7414 38.9387 90.3236Z" fill="#009C1A" stroke="#263238" stroke-miterlimit="10"/>
<path id="Vector_61" d="M38.2774 67.7576C38.2774 67.7576 35.7034 70.2326 34.4164 71.6186L28.0804 78.4496C28.0804 78.4496 26.7934 78.0536 26.1994 78.0536C25.6054 78.0536 23.3284 78.3506 23.3284 78.3506V78.8456H24.9124C24.9124 78.8456 24.2194 80.7266 23.2294 81.7166C22.2394 82.7066 21.8434 84.9836 22.7344 85.0826C23.6254 85.1816 24.3184 83.6966 24.3184 83.6966L29.8624 79.2416C29.8624 79.2416 42.3364 70.4306 43.5244 69.7376C44.7124 69.0446 45.2074 66.8666 45.2074 66.2726V65.2826L45.1084 64.8866L38.2774 67.7576Z" fill="white" stroke="#263238" stroke-miterlimit="10"/>
<path id="Vector_62" d="M22.7344 85.0826C23.4135 85.1578 23.9759 84.3163 24.2055 83.9104C23.8373 83.7877 23.6511 83.4451 23.8472 83.0135C24.0709 82.5205 26.4548 79.1347 27.1201 78.1942C26.8187 78.1166 26.5102 78.0695 26.1994 78.0536C25.6054 78.0536 23.3284 78.3506 23.3284 78.3506V78.8456H24.9124C24.9124 78.8456 24.2194 80.7266 23.2294 81.7166C22.2394 82.7066 21.8434 84.9836 22.7344 85.0826Z" fill="#009C1A" stroke="#263238" stroke-miterlimit="10"/>
<path id="Vector_63" d="M33.6323 29.205C33.6323 29.205 32.5433 30.7157 31.0187 34.1293C29.9277 36.5755 29.3585 39.2223 29.3476 41.9008C29.3476 43.2076 29.7099 46.33 29.7099 46.33C29.7099 46.33 27.023 49.8168 26.9518 52.3571C26.8805 54.8975 28.0408 59.402 28.1853 59.7663C28.3298 60.1306 28.6942 67.2448 28.6942 67.2448C31.2475 68.0924 33.924 68.5099 36.6142 68.4803C40.9702 68.407 45.9815 65.14 45.9815 65.14C45.9815 65.14 43.7303 57.4418 42.2789 54.8262C40.8276 52.2106 39.5188 49.3812 39.5188 49.3812L38.8654 45.9677L39.7366 43.6432C39.7366 43.6432 40.7543 43.4986 41.0434 40.8118C41.3325 38.1249 40.6811 34.8559 39.9544 33.7669C39.2278 32.6779 37.4359 30.6623 37.4359 30.6623L33.6323 29.205Z" fill="#263238" stroke="#263238" stroke-miterlimit="10"/>
<path id="Vector_64" d="M42.4195 19.0971C42.5957 19.5655 42.7179 20.0524 42.7839 20.5484C42.9284 21.4929 42.5641 21.9344 42.7106 22.5106C42.8571 23.0868 43.5818 23.9619 43.5818 24.3975C43.5818 24.8331 42.5641 25.1242 42.5641 25.1242C42.5641 25.1242 41.9107 27.52 41.7721 28.0942C41.6335 28.6684 38.6496 27.6586 38.6496 27.6586L37.7784 30.9989L34.1471 29.8366L35.0183 26.7141C35.0183 26.7141 35.0916 24.6807 34.656 23.7441C34.2204 22.8076 33.0581 21.1305 35.5272 19.3881C37.9962 17.6457 41.8394 18.7328 42.4195 19.0971Z" fill="white" stroke="#263238" stroke-miterlimit="10"/>
<path id="Vector_65" d="M36.6102 24.8332L37.4022 24.7619C37.4923 25.2394 37.6386 25.7046 37.8378 26.1479" stroke="#263238" stroke-miterlimit="10"/>
<path id="Vector_66" d="M42.2017 22.7997C42.2017 23.0413 42.0889 23.2353 41.9483 23.2353C41.8077 23.2353 41.6929 23.0373 41.6929 22.7997C41.6929 22.5621 41.8077 22.3641 41.9483 22.3641C42.0889 22.3641 42.2017 22.5601 42.2017 22.7997Z" fill="#263238"/>
<path id="Vector_67" d="M41.0396 21.78C41.0396 21.78 41.6929 21.0533 42.3463 21.5622" stroke="#263238" stroke-miterlimit="10"/>
<path id="Vector_68" d="M41.9761 25.9222C41.9761 25.9222 41.2494 26.14 40.8871 25.1975" stroke="#263238" stroke-miterlimit="10"/>
<path id="Vector_69" d="M37.2637 22.6552L38.3527 23.164L38.2794 22.5106L39.2239 23.2353C39.2239 23.2353 39.2239 22.075 39.1526 21.2751C39.0813 20.4752 39.2972 19.8218 39.9446 19.5327C40.3444 19.3553 40.7575 19.2097 41.1801 19.0971L40.8891 19.9683C40.8891 19.9683 42.7047 19.8218 43.6492 18.7328C44.5937 17.6438 44.0848 15.6836 40.8158 15.0302C37.5468 14.3768 33.6264 15.248 32.1038 17.5705C30.5812 19.8931 31.1594 21.7107 31.8128 22.5819C32.4662 23.4531 33.4839 23.8174 33.8462 24.4708C34.2086 25.1242 34.7174 25.7044 34.7174 26.2132C34.7174 26.7221 34.4283 27.6665 35.153 27.3755C35.3546 27.3055 35.5378 27.1908 35.6887 27.0399C35.8396 26.889 35.9543 26.7059 36.0242 26.5043C36.0242 26.5043 36.4598 26.8666 36.5331 26.0687C36.6063 25.2707 36.6063 24.8332 36.6063 24.8332C36.3078 24.6472 36.0764 24.3708 35.9458 24.0443C35.8151 23.7178 35.7919 23.3581 35.8797 23.0175C36.1747 21.78 37.2637 22.6552 37.2637 22.6552Z" fill="#263238" stroke="#263238" stroke-miterlimit="10"/>
<path id="Vector_70" d="M33.6323 29.205C33.6242 29.2906 33.5909 29.3719 33.5366 29.4386C33.4823 29.5053 33.4095 29.5545 33.3274 29.5799C33.2452 29.6053 33.1574 29.6058 33.0749 29.5814C32.9925 29.557 32.9191 29.5087 32.864 29.4426C32.809 29.3766 32.7747 29.2957 32.7655 29.2102C32.7564 29.1247 32.7727 29.0383 32.8125 28.9621C32.8524 28.8859 32.9138 28.8231 32.9893 28.7818C33.0647 28.7405 33.1506 28.7224 33.2363 28.7298C33.3518 28.7403 33.4584 28.7963 33.5327 28.8854C33.6069 28.9745 33.6428 29.0895 33.6323 29.205Z" fill="white" stroke="#263238" stroke-miterlimit="10"/>
<path id="Vector_71" d="M34.0441 29.898C34.2847 29.898 34.4797 29.703 34.4797 29.4624C34.4797 29.2218 34.2847 29.0268 34.0441 29.0268C33.8035 29.0268 33.6085 29.2218 33.6085 29.4624C33.6085 29.703 33.8035 29.898 34.0441 29.898Z" fill="white" stroke="#263238" stroke-miterlimit="10"/>
<path id="Vector_72" d="M35.3252 29.8049C35.317 29.8906 35.2837 29.9718 35.2295 30.0386C35.1752 30.1053 35.1024 30.1544 35.0203 30.1799C34.9381 30.2053 34.8502 30.2058 34.7678 30.1814C34.6853 30.1569 34.612 30.1086 34.5569 30.0426C34.5018 29.9765 34.4676 29.8956 34.4584 29.8101C34.4493 29.7246 34.4656 29.6383 34.5054 29.5621C34.5452 29.4858 34.6067 29.4231 34.6821 29.3817C34.7575 29.3404 34.8435 29.3223 34.9292 29.3297C34.9865 29.3347 35.0422 29.351 35.0932 29.3776C35.1442 29.4042 35.1894 29.4407 35.2262 29.4848C35.263 29.529 35.2907 29.5801 35.3077 29.635C35.3247 29.6899 35.3306 29.7477 35.3252 29.8049Z" fill="white" stroke="#263238" stroke-miterlimit="10"/>
<path id="Vector_73" d="M36.1727 30.096C36.1646 30.1816 36.1313 30.2629 36.077 30.3296C36.0227 30.3963 35.9499 30.4455 35.8678 30.4709C35.7856 30.4963 35.6978 30.4969 35.6153 30.4724C35.5329 30.448 35.4595 30.3997 35.4044 30.3336C35.3494 30.2676 35.3151 30.1867 35.3059 30.1012C35.2968 30.0157 35.3131 29.9293 35.353 29.8531C35.3928 29.7769 35.4543 29.7141 35.5297 29.6728C35.6051 29.6315 35.691 29.6134 35.7767 29.6208C35.834 29.6258 35.8897 29.642 35.9407 29.6687C35.9917 29.6953 36.0369 29.7317 36.0737 29.7759C36.1105 29.8201 36.1382 29.8711 36.1552 29.9261C36.1722 29.981 36.1782 30.0388 36.1727 30.096Z" fill="white" stroke="#263238" stroke-miterlimit="10"/>
<path id="Vector_74" d="M37.026 30.4049C37.0178 30.4905 36.9845 30.5718 36.9303 30.6385C36.876 30.7052 36.8032 30.7544 36.7211 30.7798C36.6389 30.8052 36.5511 30.8057 36.4686 30.7813C36.3861 30.7569 36.3128 30.7086 36.2577 30.6425C36.2026 30.5764 36.1684 30.4956 36.1592 30.41C36.1501 30.3245 36.1664 30.2382 36.2062 30.162C36.246 30.0858 36.3075 30.023 36.3829 29.9817C36.4583 29.9403 36.5443 29.9222 36.63 29.9297C36.6873 29.9346 36.743 29.9509 36.794 29.9775C36.845 30.0041 36.8902 30.0406 36.927 30.0848C36.9638 30.129 36.9915 30.18 37.0085 30.2349C37.0255 30.2899 37.0314 30.3476 37.026 30.4049Z" fill="white" stroke="#263238" stroke-miterlimit="10"/>
<path id="Vector_75" d="M37.8656 30.7039C37.8574 30.7895 37.8241 30.8708 37.7699 30.9375C37.7156 31.0042 37.6428 31.0534 37.5607 31.0788C37.4785 31.1042 37.3907 31.1047 37.3082 31.0803C37.2257 31.0558 37.1524 31.0076 37.0973 30.9415C37.0422 30.8754 37.008 30.7945 36.9988 30.709C36.9897 30.6235 37.006 30.5372 37.0458 30.461C37.0856 30.3847 37.1471 30.322 37.2225 30.2807C37.2979 30.2393 37.3839 30.2212 37.4696 30.2287C37.5269 30.2336 37.5826 30.2499 37.6336 30.2765C37.6846 30.3031 37.7298 30.3396 37.7666 30.3838C37.8034 30.4279 37.8311 30.479 37.8481 30.5339C37.8651 30.5888 37.871 30.6466 37.8656 30.7039Z" fill="white" stroke="#263238" stroke-miterlimit="10"/>
<path id="Vector_76" d="M38.713 31.0048C38.7049 31.0904 38.6716 31.1717 38.6173 31.2384C38.563 31.3052 38.4902 31.3543 38.4081 31.3797C38.3259 31.4051 38.2381 31.4057 38.1556 31.3812C38.0731 31.3568 37.9998 31.3085 37.9447 31.2424C37.8897 31.1764 37.8554 31.0955 37.8462 31.01C37.8371 30.9245 37.8534 30.8382 37.8932 30.7619C37.933 30.6857 37.9945 30.623 38.0699 30.5816C38.1454 30.5403 38.2313 30.5222 38.317 30.5296C38.4325 30.5402 38.5391 30.5961 38.6134 30.6852C38.6876 30.7744 38.7234 30.8893 38.713 31.0048Z" fill="white" stroke="#263238" stroke-miterlimit="10"/>
<g id="Vector_77">
<path d="M36.6102 31.8047C36.6102 31.8047 38.5704 31.878 39.9505 32.6779C41.3306 33.4778 48.3754 38.0516 48.3754 38.0516L56.0182 34.2362V32.1295L57.7606 31.0405L58.414 31.187C58.414 31.187 59.3584 30.7494 59.8 30.9672C60.2415 31.185 60.1623 32.0582 60.1623 32.0582L60.091 32.3473C60.091 32.3473 60.3801 33.9451 60.1623 34.5253C59.9445 35.1054 57.1131 35.7588 56.8953 35.8321C56.6775 35.9053 49.3595 42.3661 48.415 42.5759C47.4705 42.7858 36.9726 39.006 36.9726 39.006" fill="#263238"/>
<path d="M36.6102 31.8047C36.6102 31.8047 38.5704 31.878 39.9505 32.6779C41.3306 33.4778 48.3754 38.0516 48.3754 38.0516L56.0182 34.2362V32.1295L57.7606 31.0405L58.414 31.187C58.414 31.187 59.3584 30.7494 59.8 30.9672C60.2415 31.185 60.1623 32.0582 60.1623 32.0582L60.091 32.3473C60.091 32.3473 60.3801 33.9451 60.1623 34.5253C59.9445 35.1054 57.1131 35.7588 56.8953 35.8321C56.6775 35.9053 49.3595 42.3661 48.415 42.5759C47.4705 42.7858 36.9726 39.006 36.9726 39.006" stroke="#263238" stroke-miterlimit="10"/>
</g>
<path id="Vector_78" d="M60.1564 34.5272C60.3742 33.9451 60.0851 32.3492 60.0851 32.3492L60.1564 32.0602C60.1564 32.0602 60.2297 31.189 59.7941 30.9692C59.3585 30.7494 58.4081 31.189 58.4081 31.189L57.7547 31.0424L56.0123 32.1314V34.2382L48.3695 38.0536C48.3695 38.0536 46.0806 36.5666 43.8571 35.141C43.3046 36.3191 41.8335 39.2535 40.4534 40.2316C40.4356 40.2455 41.1722 40.4296 41.1544 40.4494C44.5718 41.6929 47.8012 42.7205 48.4031 42.5799C49.3476 42.3621 56.6657 35.9093 56.8835 35.836C57.1013 35.7628 59.9386 35.1074 60.1564 34.5272Z" fill="white" stroke="#263238" stroke-miterlimit="10"/>
</g>
<g id="freepik--Floor--inject-319">
<path id="Vector_79" d="M1.58398 91.674H94.842" stroke="#263238" stroke-miterlimit="10"/>
</g>
</g>
</svg>
