<svg width="124" height="124" viewBox="0 0 124 124" fill="none" xmlns="http://www.w3.org/2000/svg">
<path d="M27.7363 27.8132C28.952 26.9887 30.3525 26.4776 31.8134 26.3252C40.0421 25.4175 44.2258 36.6321 45.9693 42.8842C47.7722 49.3446 50.9888 54.8675 57.8882 56.6903C62.3943 57.8807 67.1857 57.3376 71.729 56.2836C81.9342 53.9152 97.8707 46.9166 105.162 58.585C107.394 62.1513 107.987 66.5855 107.357 70.737C106.876 73.8049 105.78 76.7437 104.133 79.3764C102.487 82.0092 100.325 84.2813 97.7765 86.056C85.9965 94.1656 73.9561 88.1293 64.9041 79.0698C55.1478 69.3011 46.6736 59.6663 34.6282 52.4222C31.8829 50.7681 29.0309 49.2131 26.722 46.9886C21.4594 41.912 21.328 32.1755 27.7363 27.8132Z" fill="#17AE42"/>
<path opacity="0.9" d="M27.7363 27.8132C28.952 26.9887 30.3525 26.4776 31.8134 26.3252C40.0421 25.4175 44.2258 36.6321 45.9693 42.8842C47.7722 49.3446 50.9888 54.8675 57.8882 56.6903C62.3943 57.8807 67.1857 57.3376 71.729 56.2836C81.9342 53.9152 97.8707 46.9166 105.162 58.585C107.394 62.1513 107.987 66.5855 107.357 70.737C106.876 73.8049 105.78 76.7437 104.133 79.3764C102.487 82.0092 100.325 84.2813 97.7765 86.056C85.9965 94.1656 73.9561 88.1293 64.9041 79.0698C55.1478 69.3011 46.6736 59.6663 34.6282 52.4222C31.8829 50.7681 29.0309 49.2131 26.722 46.9886C21.4594 41.912 21.328 32.1755 27.7363 27.8132Z" fill="white"/>
<path d="M62 106.035C88.5565 106.035 110.085 104.778 110.085 103.228C110.085 101.677 88.5565 100.42 62 100.42C35.4435 100.42 13.9153 101.677 13.9153 103.228C13.9153 104.778 35.4435 106.035 62 106.035Z" fill="#F5F5F5"/>
<path d="M86.8001 93.625V66.216H84.0721V93.625L82.3361 94.1582V94.984H88.5361V94.1582L86.8001 93.625Z" fill="#2E353A"/>
<path d="M52.0801 66.216H49.3521V93.625L47.6161 94.1582V94.984H53.8161V94.1582L52.0801 93.625V66.216Z" fill="#2E353A"/>
<g opacity="0.2">
<path d="M86.8001 69.44H84.0721V93.625L82.3361 94.1582V94.984H88.5361V94.1582L86.8001 93.625V69.44Z" fill="white"/>
<path d="M52.0801 69.44H49.3521V93.625L47.6161 94.1582V94.984H53.8161V94.1582L52.0801 93.625V69.44Z" fill="white"/>
</g>
<path d="M95.2321 67.208V23.064L40.9201 23.064V67.208H95.2321Z" fill="#2E353A"/>
<path opacity="0.2" d="M95.2321 67.208V23.064L40.9201 23.064V67.208H95.2321Z" fill="white"/>
<path d="M94.0243 24.2891H42.1278V65.9581H94.0243V24.2891Z" fill="#17AE42"/>
<path opacity="0.3" d="M94.0243 24.2891H42.1278V65.9581H94.0243V24.2891Z" fill="white"/>
<path d="M47.988 28.024V39.308H65.9705L47.988 28.024Z" stroke="#263238" stroke-miterlimit="10"/>
<path d="M48.8908 39.3378V38.4152H47.9683" stroke="#263238" stroke-width="0.793303" stroke-miterlimit="10"/>
<path d="M59.6645 38.8404C59.3376 38.8404 59.0203 38.7627 58.7125 38.6072C58.4079 38.4485 58.1953 38.2153 58.0747 37.9075L58.2841 37.7552L58.1223 38.7452H57.3607V31.6055H58.2175V34.9945L58.0366 34.8612C58.1953 34.6042 58.4222 34.3947 58.7173 34.2329C59.0124 34.0679 59.3281 33.9854 59.6645 33.9854C60.0992 33.9854 60.4737 34.0996 60.7878 34.3281C61.1019 34.5534 61.3431 34.8517 61.5113 35.2229C61.6826 35.591 61.7683 35.9877 61.7683 36.4129C61.7683 36.8667 61.6747 37.2776 61.4875 37.6457C61.3003 38.0106 61.048 38.301 60.7307 38.5167C60.4134 38.7325 60.058 38.8404 59.6645 38.8404ZM59.5598 38.0788C59.8327 38.0788 60.0691 38.0043 60.269 37.8551C60.4689 37.7028 60.6228 37.5013 60.7307 37.2506C60.8386 36.9968 60.8925 36.7175 60.8925 36.4129C60.8925 36.0956 60.8386 35.8116 60.7307 35.5609C60.6228 35.3102 60.4689 35.1119 60.269 34.9659C60.0691 34.8199 59.8327 34.747 59.5598 34.747C59.3154 34.747 59.087 34.8088 58.8744 34.9326C58.6649 35.0532 58.4952 35.2372 58.3651 35.4847C58.2349 35.7291 58.1699 36.0385 58.1699 36.4129C58.1699 36.8032 58.2349 37.1205 58.3651 37.3649C58.4952 37.6092 58.6649 37.7901 58.8744 37.9075C59.087 38.0217 59.3154 38.0788 59.5598 38.0788Z" fill="#263238"/>
<path d="M50.9423 55.8805C50.6155 55.8805 50.2982 55.8027 49.9904 55.6472C49.6857 55.4886 49.4731 55.2554 49.3525 54.9475L49.562 54.7952L49.4001 55.7853H48.6386V48.6455H49.4953V52.0345L49.3145 51.9013C49.4731 51.6442 49.7 51.4348 49.9951 51.273C50.2902 51.108 50.606 51.0255 50.9423 51.0255C51.377 51.0255 51.7515 51.1397 52.0656 51.3682C52.3798 51.5935 52.6209 51.8917 52.7891 52.263C52.9605 52.6311 53.0462 53.0278 53.0462 53.453C53.0462 53.9067 52.9525 54.3177 52.7653 54.6858C52.5781 55.0507 52.3258 55.341 52.0085 55.5568C51.6912 55.7726 51.3358 55.8805 50.9423 55.8805ZM50.8376 55.1189C51.1105 55.1189 51.3469 55.0443 51.5468 54.8952C51.7467 54.7429 51.9006 54.5414 52.0085 54.2907C52.1164 54.0368 52.1703 53.7576 52.1703 53.453C52.1703 53.1356 52.1164 52.8516 52.0085 52.601C51.9006 52.3503 51.7467 52.1519 51.5468 52.006C51.3469 51.86 51.1105 51.787 50.8376 51.787C50.5933 51.787 50.3648 51.8489 50.1522 51.9727C49.9428 52.0932 49.773 52.2773 49.6429 52.5248C49.5128 52.7691 49.4477 53.0785 49.4477 53.453C49.4477 53.8433 49.5128 54.1606 49.6429 54.4049C49.773 54.6493 49.9428 54.8301 50.1522 54.9475C50.3648 55.0618 50.5933 55.1189 50.8376 55.1189Z" fill="#263238"/>
<path d="M57.0372 48.3462C56.5104 48.3462 56.0678 48.2399 55.7092 48.0273C55.3538 47.8115 55.0841 47.5228 54.9 47.161C54.7192 46.7961 54.6287 46.3915 54.6287 45.9473C54.6287 45.484 54.716 45.0667 54.8905 44.6955C55.0682 44.3242 55.3395 44.0307 55.7044 43.8149C56.0694 43.5991 56.5358 43.4912 57.1038 43.4912C57.3482 43.4912 57.5782 43.5166 57.794 43.5674C58.013 43.615 58.2081 43.6816 58.3795 43.7673L58.2462 44.5193C58.0717 44.4368 57.886 44.3718 57.6893 44.3242C57.4957 44.2766 57.2942 44.2528 57.0848 44.2528C56.5707 44.2528 56.1788 44.3988 55.9091 44.6907C55.6394 44.9826 55.5045 45.3888 55.5045 45.9092C55.5045 46.4169 55.633 46.8247 55.8901 47.1325C56.1471 47.4403 56.539 47.5942 57.0658 47.5942C57.2815 47.5942 57.4878 47.5688 57.6845 47.518C57.8844 47.4673 58.0748 47.3974 58.2557 47.3086L58.3699 47.994C58.243 48.0829 58.0574 48.1638 57.813 48.2368C57.5687 48.3097 57.3101 48.3462 57.0372 48.3462Z" fill="#263238"/>
<path d="M50.79 59.345C50.2632 59.345 49.8206 59.2387 49.462 59.0261C49.1066 58.8104 48.8369 58.5216 48.6528 58.1598C48.472 57.7949 48.3815 57.3903 48.3815 56.9461C48.3815 56.4828 48.4688 56.0655 48.6433 55.6943C48.821 55.323 49.0923 55.0295 49.4573 54.8137C49.8222 54.5979 50.2886 54.49 50.8566 54.49C51.101 54.49 51.331 54.5154 51.5468 54.5662C51.7658 54.6138 51.9609 54.6804 52.1323 54.7661L51.999 55.5181C51.8245 55.4356 51.6388 55.3706 51.4421 55.323C51.2485 55.2754 51.047 55.2516 50.8376 55.2516C50.3235 55.2516 49.9316 55.3976 49.6619 55.6895C49.3922 55.9814 49.2573 56.3876 49.2573 56.908C49.2573 57.4157 49.3859 57.8235 49.6429 58.1313C49.8999 58.4391 50.2918 58.593 50.8186 58.593C51.0343 58.593 51.2406 58.5676 51.4373 58.5168C51.6372 58.4661 51.8276 58.3963 52.0085 58.3074L52.1227 58.9928C51.9958 59.0817 51.8102 59.1626 51.5659 59.2356C51.3215 59.3086 51.0629 59.345 50.79 59.345Z" fill="#263238"/>
<path d="M47.6551 41.5287C47.3663 41.5287 47.114 41.47 46.8983 41.3526C46.6825 41.2352 46.5143 41.075 46.3937 40.8719C46.2763 40.6688 46.2176 40.4371 46.2176 40.1769C46.2176 39.9136 46.2747 39.6883 46.389 39.501C46.5064 39.3107 46.6619 39.1536 46.8554 39.0298C47.0522 38.9029 47.2711 38.8029 47.5123 38.73C47.7534 38.6538 48.0025 38.5999 48.2596 38.5681C48.5198 38.5332 48.7689 38.5142 49.0069 38.511C49.0069 38.0668 48.9196 37.7764 48.7451 37.64C48.5705 37.5035 48.3183 37.4353 47.9883 37.4353C47.8137 37.4353 47.6265 37.4623 47.4266 37.5162C47.2299 37.5701 47.0077 37.6828 46.7602 37.8541L46.6365 37.1592C46.8237 37.0164 47.0569 36.9006 47.3362 36.8117C47.6154 36.7197 47.9089 36.6737 48.2167 36.6737C48.6102 36.6737 48.9275 36.7435 49.1687 36.8831C49.4099 37.0196 49.586 37.2512 49.697 37.5781C49.8081 37.9049 49.8636 38.3492 49.8636 38.9108V39.8628C49.8636 40.0849 49.8731 40.269 49.8922 40.4149C49.9144 40.5577 49.962 40.6656 50.035 40.7386C50.1111 40.8084 50.2317 40.8433 50.3967 40.8433H50.4824L50.3491 41.5287H50.2825C50.0064 41.5287 49.7922 41.5018 49.6399 41.4478C49.4908 41.3939 49.3765 41.3161 49.2972 41.2146C49.2179 41.113 49.1465 40.9893 49.083 40.8433C48.9085 41.0464 48.7022 41.2114 48.4642 41.3383C48.2263 41.4653 47.9565 41.5287 47.6551 41.5287ZM47.8169 40.8433C48.0454 40.8433 48.2659 40.7862 48.4785 40.672C48.6943 40.5577 48.8704 40.4054 49.0069 40.215V39.1012C48.5531 39.1171 48.185 39.1615 47.9026 39.2345C47.6233 39.3075 47.4187 39.417 47.2886 39.5629C47.1585 39.7089 47.0934 39.8977 47.0934 40.1293C47.0934 40.38 47.1601 40.5625 47.2933 40.6767C47.4298 40.7878 47.6043 40.8433 47.8169 40.8433Z" fill="#263238"/>
<path d="M49.7333 52.4134C49.4446 52.4134 49.1923 52.3547 48.9765 52.2373C48.7607 52.1199 48.5925 51.9597 48.472 51.7566C48.3546 51.5535 48.2959 51.3219 48.2959 51.0617C48.2959 50.7983 48.353 50.573 48.4672 50.3858C48.5846 50.1954 48.7401 50.0383 48.9337 49.9145C49.1304 49.7876 49.3494 49.6877 49.5905 49.6147C49.8317 49.5385 50.0808 49.4846 50.3378 49.4528C50.598 49.4179 50.8471 49.3989 51.0851 49.3957C51.0851 48.9515 50.9978 48.6611 50.8233 48.5247C50.6488 48.3882 50.3965 48.32 50.0665 48.32C49.892 48.32 49.7048 48.347 49.5048 48.4009C49.3081 48.4549 49.086 48.5675 48.8385 48.7389L48.7147 48.0439C48.9019 47.9011 49.1352 47.7853 49.4144 47.6965C49.6937 47.6044 49.9872 47.5584 50.295 47.5584C50.6885 47.5584 51.0058 47.6282 51.2469 47.7679C51.4881 47.9043 51.6642 48.136 51.7753 48.4628C51.8863 48.7896 51.9419 49.2339 51.9419 49.7955V50.7475C51.9419 50.9696 51.9514 51.1537 51.9704 51.2997C51.9926 51.4424 52.0402 51.5503 52.1132 51.6233C52.1894 51.6931 52.31 51.728 52.475 51.728H52.5607L52.4274 52.4134H52.3607C52.0847 52.4134 51.8705 52.3865 51.7182 52.3325C51.569 52.2786 51.4548 52.2008 51.3755 52.0993C51.2961 51.9978 51.2247 51.874 51.1613 51.728C50.9867 51.9311 50.7805 52.0961 50.5425 52.2231C50.3045 52.35 50.0348 52.4134 49.7333 52.4134ZM49.8952 51.728C50.1236 51.728 50.3442 51.6709 50.5568 51.5567C50.7725 51.4424 50.9487 51.2901 51.0851 51.0997V49.9859C50.6313 50.0018 50.2632 50.0462 49.9808 50.1192C49.7016 50.1922 49.4969 50.3017 49.3668 50.4476C49.2367 50.5936 49.1717 50.7824 49.1717 51.0141C49.1717 51.2647 49.2383 51.4472 49.3716 51.5614C49.508 51.6725 49.6825 51.728 49.8952 51.728Z" fill="#263238"/>
<path d="M70.1841 28.148H80.1041" stroke="#263238" stroke-miterlimit="10"/>
<path d="M70.1841 30.132H75.6401" stroke="#263238" stroke-miterlimit="10"/>
<path d="M70.1841 31.62H77.8721" stroke="#263238" stroke-miterlimit="10"/>
<path d="M70.1841 33.356H76.6321" stroke="#263238" stroke-miterlimit="10"/>
<path d="M70.1841 35.34H79.8561" stroke="#263238" stroke-miterlimit="10"/>
<path d="M70.1841 37.076H79.6081" stroke="#263238" stroke-miterlimit="10"/>
<path d="M70.1841 38.812H76.6321" stroke="#263238" stroke-miterlimit="10"/>
<path d="M81.344 53.94H88.04" stroke="#263238" stroke-miterlimit="10"/>
<path d="M81.344 55.924H85.064" stroke="#263238" stroke-miterlimit="10"/>
<path d="M81.344 57.412H86.552" stroke="#263238" stroke-miterlimit="10"/>
<path d="M81.344 59.148H85.808" stroke="#263238" stroke-miterlimit="10"/>
<path d="M47.368 57.164H54.064" stroke="#263238" stroke-miterlimit="10"/>
<path d="M47.368 59.148H51.088" stroke="#263238" stroke-miterlimit="10"/>
<path d="M47.368 60.636H52.576" stroke="#263238" stroke-miterlimit="10"/>
<path d="M47.368 62.372H51.832" stroke="#263238" stroke-miterlimit="10"/>
<path d="M83.328 31.62H89.776" stroke="#263238" stroke-miterlimit="10"/>
<path d="M83.328 33.356H89.776" stroke="#263238" stroke-miterlimit="10"/>
<path d="M83.328 35.092H87.792" stroke="#263238" stroke-miterlimit="10"/>
<path d="M64.2321 57.164H70.6801" stroke="#263238" stroke-miterlimit="10"/>
<path d="M64.2321 58.9H70.6801" stroke="#263238" stroke-miterlimit="10"/>
<path d="M64.2321 60.636H68.6961" stroke="#263238" stroke-miterlimit="10"/>
<path d="M52.0801 45.756H66.4641" stroke="#263238" stroke-miterlimit="10"/>
<path d="M52.0801 48.98H66.4641" stroke="#263238" stroke-miterlimit="10"/>
<path d="M52.0801 52.204H66.4641" stroke="#263238" stroke-miterlimit="10"/>
<path d="M76.0046 53.9549C78.5043 53.9549 80.5306 51.9285 80.5306 49.4289C80.5306 46.9292 78.5043 44.9029 76.0046 44.9029C73.505 44.9029 71.4786 46.9292 71.4786 49.4289C71.4786 51.9285 73.505 53.9549 76.0046 53.9549Z" stroke="#263238" stroke-width="0.793303" stroke-miterlimit="10"/>
<path d="M76.0121 44.888V49.476H80.6001" stroke="#263238" stroke-miterlimit="10"/>
<path opacity="0.6" d="M94.0243 24.2891H42.1278V65.9581H94.0243V24.2891Z" fill="white"/>
<path d="M74.4646 46.7778L70.6354 44.5458C70.025 44.5913 69.4113 44.563 68.8077 44.4614C67.8157 44.2903 67.6024 44.2804 67.7214 43.4992C67.8405 42.718 67.6743 41.6764 67.9694 41.5673C68.2646 41.4582 70.3527 42.3386 70.7148 42.9362L74.5786 44.3176L74.4646 46.7778Z" fill="#B97964"/>
<path d="M85.8081 42.9958V47.4598C85.8081 47.4598 84.8558 47.7747 83.6728 48.1046C82.3162 48.4815 80.6571 48.8783 79.7941 48.8486C78.1821 48.7692 72.7261 45.937 72.7261 45.937L73.7181 44.0473C73.7181 44.0473 79.6701 46.0759 80.4141 45.9296C81.1581 45.7833 85.8081 42.9958 85.8081 42.9958Z" fill="#17AE42"/>
<path opacity="0.2" d="M85.808 45.1707V47.4622C85.808 47.4622 84.8557 47.7772 83.6727 48.107C84.1092 46.7778 85.1979 45.694 85.808 45.1707Z" fill="black"/>
<path d="M86.8001 58.8851C86.8001 58.8851 84.1117 73.2096 83.395 79.0922C82.4576 86.7653 78.626 97.9898 78.626 97.9898L80.1586 98.3866C80.1586 98.3866 85.5601 88.8485 86.6066 80.2652C90.897 71.4934 91.2417 60.6906 91.2417 60.6906L86.8001 58.8851Z" fill="#B97964"/>
<path d="M75.7839 101.462C76.0315 101.348 76.2981 101.281 76.5701 101.263C76.5701 101.263 77.5125 100.708 78.4475 98.5552H79.4965C79.6738 98.5577 79.846 98.6144 79.9901 98.7177C80.1342 98.821 80.2432 98.9659 80.3025 99.133C80.3197 99.18 80.3298 99.2294 80.3323 99.2794C80.3214 99.5288 80.2949 99.7773 80.2529 100.023C80.0974 100.862 79.892 101.69 79.6378 102.503L79.4593 102.456L79.7842 100.891C79.8908 100.358 79.3328 100.872 79.0724 101.41C78.812 101.948 78.4152 102.486 77.257 102.221C75.9054 101.901 75.3598 101.705 75.7839 101.462Z" fill="#2E353A"/>
<path d="M89.6 58.657C89.6 58.657 89.9348 73.2269 90.4506 79.1318C91.1202 86.8322 89.6917 98.6073 89.6917 98.6073L91.274 98.6767C91.274 98.6767 94.5848 88.2285 93.8408 79.6129C96.2241 70.1418 94.3368 59.5026 94.3368 59.5026L89.6 58.657Z" fill="#B97964"/>
<path d="M87.2315 101.943C87.4657 101.802 87.7238 101.705 87.9929 101.658C87.9929 101.658 88.8708 101.005 89.5652 98.7635L90.6093 98.6445C90.7868 98.6276 90.9652 98.6662 91.1198 98.755C91.2744 98.8439 91.3976 98.9786 91.4723 99.1405C91.4946 99.185 91.5096 99.2327 91.517 99.2818C91.5331 99.5354 91.5331 99.7897 91.517 100.043C91.4535 100.89 91.3393 101.732 91.1747 102.565L90.9912 102.538L91.145 100.946C91.1946 100.405 90.6936 100.978 90.4927 101.539C90.2919 102.099 89.957 102.679 88.7741 102.543C87.4002 102.364 86.8372 102.231 87.2315 101.943Z" fill="#2E353A"/>
<path d="M94.9419 33.8718C94.9419 33.8718 95.7281 33.914 96.3902 35.2061C97.0524 36.4982 96.2241 37.9341 96.0579 38.621C95.8917 39.308 95.0659 39.9156 96.4299 40.9547C97.7939 41.9938 98.6123 43.0974 97.5062 44.2209C96.4001 45.3443 97.6153 46.2049 96.0182 47.0382C94.4211 47.8714 88.5361 46.624 87.7921 45.012C87.0481 43.4 87.9458 42.1749 87.9929 41.6938C88.0401 41.2126 87.0481 40.7191 86.8001 39.1443C86.5521 37.5695 87.8218 37.2322 87.9929 36.513C88.1641 35.7938 87.368 34.8862 87.9929 33.356C88.6179 31.8258 94.8576 31.496 94.9419 33.8718Z" fill="#2E353A"/>
<path d="M98.9025 55.3263C97.9625 55.4478 96.8763 53.6126 96.0901 51.9014C95.4181 50.4506 94.9493 49.0866 94.9493 49.0866L95.4453 47.6879L96.7399 44.0374C96.7399 44.0374 97.6451 45.2997 99.0066 50.1059C99.2249 50.8797 99.4877 51.7452 99.7283 52.7124C99.7265 52.9568 99.802 53.1955 99.9441 53.3944C99.9441 54.121 100.031 55.18 98.9025 55.3263Z" fill="#17AE42"/>
<path opacity="0.2" d="M96.0728 51.9014C95.4032 50.4506 94.9419 49.0866 94.9419 49.0866L95.4379 47.6879C95.7851 48.6551 96.2935 50.4085 96.0728 51.9014Z" fill="black"/>
<path opacity="0.2" d="M99.944 53.3944C99.448 53.7218 98.9297 53.7168 98.6395 53.1191C98.0518 51.9114 98.6197 50.716 99.0215 50.1034C99.2422 50.8772 99.4951 51.7427 99.7357 52.7099C99.7278 52.9548 99.801 53.1955 99.944 53.3944Z" fill="black"/>
<path d="M85.1483 54.8502C85.1483 54.8502 90.1083 56.6258 94.8352 56.296C94.8352 56.296 94.4062 50.4432 91.9262 49.4016C89.4462 48.36 85.1483 49.848 85.1483 54.8502Z" fill="#17AE42"/>
<path opacity="0.2" d="M85.1483 54.8502C85.1483 54.8502 90.1083 56.6258 94.8352 56.296C94.8352 56.296 94.4062 50.4432 91.9262 49.4016C89.4462 48.36 85.1483 49.848 85.1483 54.8502Z" fill="black"/>
<path d="M85.8502 55.2668L94.0342 55.9736C94.1139 53.9449 94.4056 51.9301 94.9047 49.9621C95.1006 49.1784 95.3461 48.303 95.6611 47.2911C95.8297 46.7505 96.0157 46.1702 96.224 45.5551C96.3803 45.0814 96.5489 44.578 96.7349 44.0473C95.6236 43.6925 94.4881 43.4181 93.3373 43.2264C92.1229 43.0107 90.8947 42.8814 89.662 42.8395C88.0698 42.8395 86.2396 43.0057 86.2396 43.0057C86.2396 43.0057 85.9792 43.0677 85.8155 44.7566C85.6692 46.3314 85.5228 49.5008 85.8502 55.2668Z" fill="#17AE42"/>
<path d="M85.8899 56.4944L94.0739 57.169C94.2028 55.1354 94.2995 52.3875 94.9121 49.9621C95.108 49.1784 95.3535 48.303 95.6685 47.2911C95.8371 46.7505 96.0231 46.1702 96.2315 45.5551C96.3877 45.0814 96.5563 44.578 96.7423 44.0473C95.631 43.6925 94.4955 43.4181 93.3447 43.2264C92.1303 43.0107 90.9021 42.8814 89.6694 42.8395C88.0772 42.8395 86.247 43.0057 86.247 43.0057C86.247 43.0057 85.9866 43.0677 85.8229 44.7566C85.6691 46.3314 85.56 50.7284 85.8899 56.4944Z" fill="#2E353A"/>
<path d="M90.339 44.64C92.3577 44.392 92.9628 43.519 92.9628 43.519C91.6831 42.3113 92.7471 40.2182 92.7471 40.2182L90.3191 40.672C90.3761 41.0106 90.4076 41.3529 90.4134 41.6962C90.4332 43.1694 89.7661 43.1842 89.7661 43.1842C89.3395 43.9803 90.339 44.64 90.339 44.64Z" fill="#B97964"/>
<path opacity="0.2" d="M90.3192 40.672C90.3762 41.0106 90.4077 41.3529 90.4135 41.6962C92.0527 41.6962 92.7471 40.2082 92.7471 40.2082L90.3192 40.672Z" fill="black"/>
<path d="M91.6609 33.8793C89.5504 33.7652 88.8089 34.8589 88.5361 37.0239C88.1939 39.7321 88.6899 41.6962 91.3608 41.2598C94.9841 40.672 95.1676 34.0727 91.6609 33.8793Z" fill="#B97964"/>
<path d="M89.905 36.9818C89.7191 37.2878 89.4968 37.5701 89.2428 37.8225C89.3002 37.9132 89.3814 37.9865 89.4777 38.0342C89.5739 38.0818 89.6814 38.1021 89.7884 38.0928L89.905 36.9818Z" fill="#A24E3F"/>
<path d="M91.207 36.8801C91.207 37.0537 91.2765 37.2 91.393 37.2099C91.5096 37.2198 91.6113 37.0859 91.6262 36.9123C91.641 36.7387 91.5567 36.5924 91.4402 36.5825C91.3236 36.5726 91.2219 36.704 91.207 36.8801Z" fill="#2E353A"/>
<path d="M91.4897 36.5949L91.1227 36.4163C91.1227 36.4163 91.2864 36.7486 91.4897 36.5949Z" fill="#2E353A"/>
<path d="M89.0569 36.6742C89.0445 36.8478 89.1263 36.9966 89.2429 37.0041C89.3595 37.0115 89.4611 36.8801 89.476 36.7065C89.4909 36.5329 89.4066 36.3866 89.2925 36.3766C89.1784 36.3667 89.0718 36.5006 89.0569 36.6742Z" fill="#2E353A"/>
<path d="M89.3396 36.389L88.9725 36.213C88.9725 36.213 89.1362 36.5453 89.3396 36.389Z" fill="#2E353A"/>
<path d="M91.3087 35.4218C91.4767 35.4105 91.645 35.438 91.8006 35.5021C91.9563 35.5661 92.0951 35.6651 92.2065 35.7914" stroke="#2E353A" stroke-width="0.72468" stroke-linecap="round" stroke-linejoin="round"/>
<path d="M89.7761 35.2507C89.6339 35.2066 89.4836 35.1951 89.3363 35.217C89.1891 35.2389 89.0486 35.2936 88.9254 35.3772" stroke="#2E353A" stroke-width="0.72468" stroke-linecap="round" stroke-linejoin="round"/>
<path d="M90.0488 38.936C90.1356 39.1786 90.2044 39.4273 90.2547 39.68C90.3009 39.6825 90.3473 39.6825 90.3935 39.68C91.0111 39.6527 91.2863 39.432 91.4079 39.2038C91.4641 39.089 91.4913 38.9621 91.4872 38.8343C91.4892 38.7622 91.48 38.6903 91.4599 38.621C91.091 38.8096 90.6859 38.917 90.272 38.936C90.1307 38.936 90.0488 38.936 90.0488 38.936Z" fill="#2E353A"/>
<path d="M90.2721 38.936L90.3391 39.1542C90.9219 39.127 91.3311 39.0278 91.4997 38.8442C91.5017 38.7722 91.4925 38.7002 91.4724 38.631C91.0989 38.8178 90.6895 38.9218 90.2721 38.936Z" fill="white"/>
<path d="M90.3936 39.68C91.0111 39.6527 91.2864 39.432 91.4079 39.2038C91.1733 39.2185 90.9432 39.2748 90.7284 39.37C90.587 39.4357 90.4699 39.5442 90.3936 39.68Z" fill="#DE5753"/>
<path d="M93.7739 37.5646C93.7739 37.5646 92.8811 35.7765 93.1043 34.4447C93.1043 34.4447 89.0148 32.5078 88.5758 36.7412C88.5758 36.7412 88.3724 32.9493 92.0056 33.0634C95.6388 33.1774 95.3338 38.4871 93.3721 39.9652C93.3721 39.9652 94.3244 38.688 93.7739 37.5646Z" fill="#2E353A"/>
<path d="M93.4043 37.9911C93.4208 37.8705 93.4609 37.7544 93.5223 37.6494C93.5837 37.5443 93.6652 37.4524 93.7622 37.3789C93.8592 37.3054 93.9697 37.2518 94.0875 37.2211C94.2052 37.1904 94.3279 37.1832 94.4484 37.2C95.0982 37.3066 95.3362 38.6657 93.7044 38.9013C93.4539 38.936 93.3349 38.688 93.4043 37.9911Z" fill="#B97964"/>
<path d="M94.8352 43.7422C94.8352 43.7422 92.4643 45.6642 90.272 45.632C88.0797 45.5998 87.296 43.1222 87.296 43.1222C87.296 43.1222 90.7011 42.1079 94.8352 43.7422Z" fill="#B97964"/>
<path d="M94.6318 43.3802C94.6318 43.3802 90.7432 50.344 94.8352 56.296C94.8352 56.296 95.3907 48.9527 96.7374 44.0374L94.6318 43.3802Z" fill="#17AE42"/>
<path d="M87.4969 42.8296C87.4969 42.8296 87.4622 47.7573 86.7529 49.5876C86.0436 51.4178 85.1434 54.8502 85.1434 54.8502C85.1434 54.8502 84.4589 46.6413 85.8031 42.9957L87.4969 42.8296Z" fill="#17AE42"/>
<path d="M93.1042 34.4447C93.1042 34.4447 91.5319 33.9016 90.1481 34.4447C88.7642 34.9878 89.1412 36.4287 88.4393 36.6916" stroke="#2E353A" stroke-width="0.5" stroke-linecap="round" stroke-linejoin="round"/>
<path d="M105.586 41.9417L104.936 41.5697L102.548 42.222L99.3241 41.3862L98.5801 43.834C98.5801 43.834 98.4263 46.562 98.5801 46.5942C98.7338 46.6265 102.27 46.81 102.27 46.81L104.068 45.6642L105.586 41.9417Z" fill="#E0E0E0"/>
<path d="M98.456 41.5697L97.03 47.2167L101.432 47.7102L104.47 46.872L106.02 41.5697L102.548 42.47L98.456 41.5697Z" fill="#17AE42"/>
<path opacity="0.4" d="M102.548 42.47L101.432 47.7102L97.03 47.2167L98.456 41.5697L102.548 42.47Z" fill="white"/>
<path opacity="0.2" d="M102.548 42.47L101.432 47.7102L104.47 46.872L106.02 41.5697L102.548 42.47Z" fill="white"/>
<path d="M98.6842 52.824L100.73 48.8957C100.656 48.2879 100.656 47.6733 100.73 47.0654C100.854 46.0734 100.854 45.8527 101.638 45.9346C102.422 46.0164 103.458 45.8031 103.582 46.0933C103.706 46.3834 102.92 48.5088 102.342 48.8982L101.139 52.824H98.6842Z" fill="#B97964"/>
<path d="M98.0221 54.9816C99.3241 56.0902 100.812 55.1378 101.638 51.956L99.0761 51.6262L98.0221 54.9816Z" fill="#17AE42"/>
<path d="M99.2075 50.9268L98.6842 51.8494L101.928 52.2858V51.336L99.2075 50.9268Z" fill="#2E353A"/>
<path d="M72.5946 46.1652L73.4924 46.7306L74.0801 43.5116L73.1303 43.4669L72.5946 46.1652Z" fill="#2E353A"/>
<path d="M85.8898 56.4944L80.7314 86.8C80.7314 86.8 93.2158 88.288 97.4466 87.42C97.4466 87.42 98.4858 65.725 94.0689 57.164L85.8898 56.4944Z" fill="#17AE42"/>
<path opacity="0.4" d="M85.8898 56.4944L80.7314 86.8C80.7314 86.8 93.2158 88.288 97.4466 87.42C97.4466 87.42 98.4858 65.725 94.0689 57.164L85.8898 56.4944Z" fill="white"/>
<path d="M69.14 43.1718L67.8553 41.845C67.089 41.044 66.0474 39.995 65.0133 38.941L63.4831 37.4034L62.1464 36.0617L61.2015 35.1143C61.0874 35.0002 60.9957 34.911 60.9361 34.849C60.9102 34.8348 60.8816 34.8261 60.8521 34.8235C60.8227 34.821 60.793 34.8246 60.765 34.8341L61.1147 34.4819C61.1052 34.5099 61.1016 34.5396 61.1041 34.569C61.1067 34.5985 61.1154 34.6271 61.1296 34.653L61.3974 34.9184L62.3497 35.8583L63.6939 37.1901L65.2414 38.7128C66.3004 39.742 67.3544 40.7786 68.1579 41.5425L69.4921 42.8197L69.14 43.1718Z" fill="#2E353A"/>
<path d="M78.6359 97.9898C78.6359 97.9898 77.3265 100.733 76.5701 101.263C76.5701 101.263 77.5819 101.866 78.6359 100.519C79.9999 98.7834 80.3322 99.2794 80.3322 99.2794C80.3052 98.9798 80.2504 98.6834 80.1686 98.394C79.9627 97.8261 78.6359 97.9898 78.6359 97.9898Z" fill="#B97964"/>
<path d="M89.8529 97.96C89.8529 97.96 89.4809 98.9768 88.9849 100.093C88.7577 100.671 88.4209 101.2 87.9929 101.65C87.9929 101.65 88.856 101.93 89.3197 101.39C89.7835 100.849 90.5796 98.9098 91.4724 99.1231C91.4249 98.9643 91.3583 98.8119 91.274 98.6693C91.14 98.456 89.8529 97.96 89.8529 97.96Z" fill="#B97964"/>
</svg>
