<svg width="17" height="14" viewBox="0 0 17 14" fill="none" xmlns="http://www.w3.org/2000/svg">
<path id="Vector" d="M16.3333 1.04032C15.679 1.50189 14.9544 1.85493 14.1877 2.08582C13.7761 1.61262 13.2292 1.27722 12.6208 1.125C12.0124 0.972778 11.372 1.01107 10.7861 1.2347C10.2002 1.45832 9.69709 1.85649 9.34486 2.37536C8.99263 2.89422 8.80825 3.50875 8.81665 4.13582V4.81915C7.61579 4.85029 6.42586 4.58396 5.35284 4.04387C4.27983 3.50379 3.35704 2.70672 2.66665 1.72365C2.66665 1.72365 -0.0666789 7.87365 6.08332 10.607C4.67602 11.5623 2.99954 12.0413 1.29999 11.9737C7.44999 15.3903 14.9667 11.9737 14.9667 4.11532C14.966 3.92498 14.9477 3.73511 14.912 3.54815C15.6094 2.86037 16.1016 1.99201 16.3333 1.04032V1.04032Z" stroke="white" stroke-width="1.36667" stroke-linecap="round" stroke-linejoin="round"/>
</svg>
